<svg width="1600" height="233" viewBox="0 0 1600 233" fill="none" xmlns="http://www.w3.org/2000/svg">
<rect y="0.000244141" width="1600" height="233" fill="#FBB403"/>
<path d="M0.192776 2.16267C-12.4069 6.19946 -25.4958 14.3954 -25.4958 18.3098C-25.4958 19.6554 -19.5018 26.8727 -11.1836 35.6802C-3.3547 43.8761 6.43144 54.1516 10.5906 58.433L17.9302 66.1396L-13.3855 65.2833C-49.5942 64.3047 -48.371 63.9377 -47.0254 75.0695C-45.4351 88.5254 -35.0373 109.933 -29.1657 111.768C-27.9424 112.134 -26.7191 113.48 -26.3521 114.703C-25.6182 117.517 -12.5292 126.202 -3.72168 129.627C0.559757 131.34 6.43144 132.441 11.3245 132.563C15.8506 132.685 20.0097 133.175 20.7437 133.664C22.9456 135.01 37.6248 132.074 45.8207 128.771C54.5059 125.346 65.026 118.006 65.026 115.56C65.026 114.581 66.2492 113.602 67.8395 113.113C71.2646 112.257 79.5829 99.6572 83.375 89.7487C86.9225 80.2072 87.7788 62.5921 85.2099 51.4604C82.7634 41.3073 75.5461 27.362 70.286 23.3252C68.0841 21.4903 66.2492 19.4108 66.2492 18.7991C66.2492 15.1293 46.5546 3.87526 35.6675 1.3064C26.7377 -0.773163 7.89936 -0.283859 0.192776 2.16267ZM19.7651 7.78971C19.7651 12.0712 19.7651 12.0712 14.505 12.0712C6.55377 12.0712 -2.37609 15.1293 -10.8166 20.8787C-16.933 24.9155 -18.6455 25.5271 -19.5018 24.1815C-22.0707 20.0224 -17.3 14.3954 -6.90218 8.89066C0.0704498 5.34319 6.06446 3.75293 14.0157 3.6306L19.7651 3.50827V7.78971ZM38.7257 6.44412C46.1877 8.40135 51.937 11.3372 57.931 16.1079C63.6804 20.7564 64.292 22.5913 61.3562 25.7718L58.9096 28.463L54.8728 24.5485C49.6128 19.5331 36.2792 13.4168 28.4503 12.4381C23.5572 11.8265 22.2116 11.2149 22.2116 9.5023C22.2116 4.85388 28.4503 3.6306 38.7257 6.44412ZM19.6427 31.2765C19.5204 41.3073 19.1534 52.6837 18.6641 56.5981L17.9302 63.8154L1.41605 46.3227C-7.63614 36.7812 -15.2204 28.463 -15.4651 27.9736C-15.9544 26.6281 -9.10406 21.6126 -2.49841 18.1875C2.88396 15.4963 10.2236 13.6614 16.4622 13.4168L19.7651 13.2944L19.6427 31.2765ZM42.1509 18.5545C45.6983 20.1447 50.7137 23.3252 53.1603 25.5271L57.6864 29.4416L40.4383 46.2003C30.8968 55.3748 22.5786 62.9591 22.0893 63.2038C20.7437 63.6931 20.6214 46.445 21.7223 27.2397L22.5786 13.7837L29.0619 14.64C32.6094 15.1293 38.4811 16.8419 42.1509 18.5545ZM78.2373 41.7966C79.5829 45.344 81.0508 51.3381 81.5401 55.1302C82.274 61.1242 82.0294 62.3475 79.8275 64.5494C78.3596 66.0173 76.7693 67.1182 76.28 67.1182C75.7907 67.1182 74.6898 63.2038 73.9558 58.433C72.6102 49.5032 66.6162 35.9249 62.4571 32.1328C60.1329 30.0532 60.1329 29.9309 62.8241 26.995L65.6376 24.0592L70.7753 29.6862C73.5889 32.8667 77.014 38.2491 78.2373 41.7966ZM64.7813 39.1054C69.3074 46.6896 72.3656 55.8642 72.3656 62.1028V66.5066L50.7137 66.1396C38.7257 66.0173 27.594 65.6503 25.8814 65.528C23.0679 65.2833 24.7805 63.3261 40.1936 48.4022C49.8575 39.1054 58.4203 31.6434 59.2766 31.8881C60.0106 32.2551 62.5794 35.4356 64.7813 39.1054ZM-34.7927 74.2132C-33.9364 81.6751 -29.1657 93.0515 -23.7833 100.024C-20.8474 103.939 -20.7251 104.428 -22.6823 106.507C-25.6182 109.81 -27.3308 109.199 -31.4899 103.939C-42.1323 90.4826 -46.1691 67.1182 -37.8509 67.1182C-36.016 67.1182 -35.4043 68.4638 -34.7927 74.2132ZM13.5264 71.522C11.3245 73.9685 2.88396 81.9198 -4.94495 89.3817L-19.3795 102.838L-21.826 100.024C-26.8414 94.0301 -31.8568 82.1644 -32.4685 74.5802L-33.2024 67.1182H-7.63614H17.8078L13.5264 71.522ZM72.8549 73.4792C71.2646 84.3663 63.6804 100.269 58.665 103.327C57.931 103.816 54.5059 101.125 50.5914 96.966C46.7993 93.0515 39.0927 84.9779 33.3433 78.9839L22.8232 68.3415H48.2672H73.5889L72.8549 73.4792ZM82.3964 75.8034C81.4178 93.1738 67.5948 113.235 60.6222 107.364C59.1543 106.14 59.5213 105.284 62.5794 101.859C68.8181 94.6418 74.8121 80.0849 74.8121 71.7666C74.8121 68.5861 75.1791 68.3415 78.8489 68.8308L82.7634 69.1978L82.3964 75.8034ZM18.1748 94.2748C17.6855 107.731 17.1962 119.107 16.9515 119.352C16.7069 119.474 13.2817 119.107 9.24496 118.373C1.04906 116.905 -10.4497 111.278 -14.7311 106.63L-17.5446 103.572L0.192776 86.5682C9.97892 77.2713 18.1748 69.5648 18.4195 69.5648C18.6641 69.5648 18.5418 80.6965 18.1748 94.2748ZM55.1175 105.651C55.2398 109.81 33.0987 119.719 23.9242 119.719H19.7651V106.507C19.7651 99.2902 20.132 88.0361 20.6214 81.4305L21.3553 69.3201L38.2364 86.9352C47.5332 96.4767 55.1175 104.917 55.1175 105.651ZM-13.7525 110.055C-7.02451 115.437 3.37327 119.841 10.9575 120.575C16.7069 121.187 17.4409 121.554 17.0739 123.878C15.8506 132.318 -6.04589 127.67 -19.5018 116.049C-24.8842 111.401 -24.8842 111.401 -22.56 108.832C-19.6242 105.529 -19.3795 105.529 -13.7525 110.055ZM59.032 113.969C57.4417 118.006 46.7993 125.223 38.7257 127.67C35.4229 128.649 29.6735 129.505 26.2484 129.505C19.8874 129.505 19.7651 129.383 19.7651 125.957C19.7651 122.655 20.132 122.532 27.8386 121.187C36.2792 119.841 48.8788 114.459 54.0166 110.177C56.4631 108.098 57.3194 107.975 58.665 109.199C59.7659 110.3 59.8883 111.645 59.032 113.969Z" fill="white" fill-opacity="0.64"/>
<path d="M9.26128 20.0147C6.93707 21.8496 6.93707 21.8496 9.87291 24.2961C13.2981 27.2319 16.4786 27.1096 17.0902 23.9291C17.5795 21.4826 15.3776 18.1798 13.1757 18.1798C12.3194 18.1798 10.6069 19.0361 9.26128 20.0147ZM13.1757 22.4612C14.2767 23.4398 14.5213 24.2961 13.9097 24.2961C13.2981 24.2961 12.0748 23.4398 11.2185 22.4612C10.3622 21.4826 10.1176 20.6263 10.4845 20.6263C10.9739 20.6263 12.1971 21.4826 13.1757 22.4612Z" fill="white" fill-opacity="0.64"/>
<path d="M-6.89069 24.6831C-10.1935 28.1082 -10.3158 30.5548 -7.38 34.1022C-3.09856 39.3623 6.3206 35.9371 6.3206 29.0868C6.3206 25.9063 2.03916 21.8696 -1.38599 21.8696C-2.97624 21.8696 -5.42277 23.0928 -6.89069 24.6831ZM3.62941 28.8422C3.87406 31.778 3.38476 33.0013 1.54986 34.1022C-1.75297 35.8148 -5.91208 33.7353 -5.91208 30.4324C-5.91208 25.784 -4.56648 24.1938 -0.529699 24.5607C2.77312 24.9277 3.26243 25.417 3.62941 28.8422Z" fill="white" fill-opacity="0.64"/>
<path d="M7.27774 34.9371C4.8312 35.5487 3.36328 38.9738 4.95353 40.5641C5.80982 41.4204 5.68749 42.2767 4.46422 43.133C2.9963 44.2339 2.9963 44.8455 4.46422 46.8028C5.44284 48.1484 6.78843 48.6377 7.76705 48.026C8.62333 47.5367 10.5806 47.0474 12.2931 47.0474C16.5746 46.9251 18.4095 43.3776 16.0853 39.3408C14.128 35.9157 10.7029 34.2031 7.27774 34.9371ZM14.128 39.2185C15.4736 41.1757 15.596 42.399 14.6173 44.2339C13.3941 46.5581 13.1494 46.5581 11.8038 44.7232C10.4582 42.8883 10.0913 42.8883 8.74566 44.4785C7.88937 45.4572 6.6661 45.9465 6.05447 45.5795C5.44284 45.2125 5.80982 43.8669 6.91076 42.6436C8.74566 40.6864 8.74566 40.4418 6.91076 39.7078C5.80982 39.3408 5.32051 38.4845 5.68749 37.7506C7.03308 35.5487 12.1708 36.405 14.128 39.2185Z" fill="white" fill-opacity="0.64"/>
<path d="M25.3928 20.8838C24.2918 22.3517 23.4355 24.4313 23.4355 25.5322C23.4355 29.202 27.1054 32.8718 30.8975 32.8718C34.3226 32.8718 39.338 29.202 39.338 26.6332C39.338 24.7983 36.7692 20.1498 35.1789 19.1712C32.3654 17.214 27.2277 18.1926 25.3928 20.8838ZM35.6682 22.474C37.5031 24.7983 36.4022 29.936 33.711 30.9146C28.2063 32.9942 24.1695 27.4894 27.9616 23.208C30.5305 20.1498 33.5887 19.9052 35.6682 22.474Z" fill="white" fill-opacity="0.64"/>
<path d="M43.5047 27.2629C43.1378 28.2415 43.0154 30.3211 43.2601 31.9113C43.5047 33.9909 44.361 34.7249 46.6852 34.7249C50.4774 34.7249 51.456 31.1774 48.3978 27.8746C45.9513 25.061 44.361 24.9387 43.5047 27.2629ZM47.2969 29.2201C47.6639 29.9541 47.1746 30.0764 46.1959 29.7095C43.9941 28.8532 43.6271 27.9969 45.3397 27.9969C46.0736 27.9969 46.9299 28.4862 47.2969 29.2201ZM47.9085 32.156C47.9085 32.523 47.4192 33.1346 46.6852 33.5016C46.0736 33.8686 45.462 33.6239 45.462 33.0123C45.462 32.2783 46.0736 31.6667 46.6852 31.6667C47.4192 31.6667 47.9085 31.9113 47.9085 32.156Z" fill="white" fill-opacity="0.64"/>
<path d="M28.4509 36.4151C27.5947 37.0268 27.2277 38.1277 27.717 38.984C28.3286 40.0849 27.9616 40.2073 26.0044 39.5956C23.8025 38.984 23.4355 39.351 23.4355 41.9198C23.4355 44.244 24.0472 45.1003 25.8821 45.1003C27.4723 45.1003 27.9616 45.712 27.5947 46.8129C26.4937 49.6264 31.7538 50.605 34.5673 48.0362C40.1943 42.8985 34.8119 32.3783 28.4509 36.4151ZM34.445 38.8617C36.1575 42.2868 36.0352 44.611 33.711 46.8129C31.5091 49.0148 29.0626 48.1585 30.0412 45.5896C30.5305 44.3664 29.7965 43.8771 27.717 43.8771C23.9249 43.8771 23.6802 41.7975 27.4723 41.1859C29.3072 40.9412 30.0412 40.0849 29.7965 38.617C29.3072 35.8035 32.8547 35.9258 34.445 38.8617Z" fill="white" fill-opacity="0.64"/>
<path d="M52.2928 39.6911C51.1919 42.627 53.7607 45.0735 57.7975 45.0735C60.3664 45.0735 61.345 44.4619 61.345 42.8716C61.345 38.1009 53.8831 35.532 52.2928 39.6911ZM55.8403 41.4037C56.2073 42.0153 55.9626 42.627 55.351 42.627C54.617 42.627 54.0054 42.0153 54.0054 41.4037C54.0054 40.6697 54.25 40.1804 54.4947 40.1804C54.8617 40.1804 55.4733 40.6697 55.8403 41.4037Z" fill="white" fill-opacity="0.64"/>
<path d="M58.0602 49.9786C52.6778 52.1804 52.6778 60.3763 58.0602 63.4345C60.9961 65.0248 61.73 65.0248 64.6659 63.4345C70.1706 60.3763 70.0482 52.7921 64.4212 50.2232C62.7086 49.3669 61.1184 48.7553 60.9961 48.8776C60.8737 48.8776 59.5281 49.3669 58.0602 49.9786ZM65.0328 53.0367C66.7454 55.1163 65.6445 61.4773 63.8096 60.3763C63.0756 60.0094 62.5863 60.254 62.5863 60.8656C62.5863 61.5996 61.8524 62.2112 60.8737 62.2112C58.6719 62.2112 55.2467 58.9084 55.2467 56.7065C55.2467 52.1804 62.2193 49.6116 65.0328 53.0367Z" fill="white" fill-opacity="0.64"/>
<path d="M40.5583 51.5983C36.5215 53.5555 35.7875 58.4486 39.2127 59.4272C40.6806 59.7942 41.7815 61.1398 41.7815 62.363C41.7815 64.0756 42.6378 64.6873 44.962 64.6873C47.4086 64.6873 47.8979 64.1979 47.2862 62.363C46.7969 60.7728 47.2862 59.9165 49.1211 59.4272C52.424 58.5709 52.3016 54.2895 48.8765 51.9653C45.5737 49.6411 44.5951 49.6411 40.5583 51.5983ZM49.1211 54.2895C50.8337 56.369 49.7328 58.6932 47.2862 57.7146C46.063 57.3476 45.4513 57.9593 45.4513 59.6719C45.4513 61.1398 44.962 62.2407 44.2281 62.2407C43.6164 62.2407 43.0048 61.1398 43.0048 59.6719C43.0048 57.9593 42.3932 57.3476 41.2922 57.7146C38.8457 58.6932 37.9894 57.3476 39.4573 54.7788C40.9253 51.9653 46.9193 51.7206 49.1211 54.2895Z" fill="white" fill-opacity="0.64"/>
<path d="M-7.74983 69.558C-8.11681 70.1696 -8.23914 71.2705 -7.87216 71.8822C-7.50518 72.4938 -8.23914 73.2278 -9.58474 73.5948C-14.7225 74.9403 -10.6857 83.0139 -5.05864 83.0139C-0.899533 83.0139 3.13725 78.9771 2.15864 75.919C0.935368 72.2492 -0.777207 72.4938 -0.165573 76.1636C0.935368 81.4237 -8.11681 83.6256 -10.074 78.6102C-11.0527 76.0413 -9.95172 74.451 -7.74983 75.3073C-6.52657 75.6743 -5.91493 75.0627 -5.91493 73.3501C-5.91493 71.8822 -5.3033 70.7812 -4.56934 70.7812C-3.9577 70.7812 -3.4684 71.8822 -3.71305 73.2278C-3.9577 74.451 -3.71305 75.552 -3.10142 75.6743C-2.61211 75.6743 -2.24513 75.4297 -2.24513 75.0627C-2.24513 74.6957 -2.24513 73.1054 -2.24513 71.3929C-2.24513 69.191 -2.85676 68.3347 -4.56934 68.3347C-5.91493 68.3347 -7.38285 68.824 -7.74983 69.558Z" fill="white" fill-opacity="0.64"/>
<path d="M39.5803 72.2652C37.7454 74.1001 37.623 76.9136 39.5803 76.9136C40.3142 76.9136 40.1919 77.7699 38.9686 79.1155C37.3784 80.828 37.256 81.6843 38.357 82.7853C40.1919 84.6202 43.0054 84.7425 43.0054 83.0299C43.0054 82.296 44.351 82.0513 46.1859 82.5406C51.5683 83.8862 53.5255 77.6475 49.1217 73.2438C46.4306 70.5526 41.7821 70.0633 39.5803 72.2652ZM47.8985 74.467C50.5897 77.1582 50.8343 78.0145 49.2441 80.4611C48.2655 81.929 47.7762 81.929 46.3082 80.7057C45.085 79.7271 44.2287 79.6048 43.617 80.5834C43.2501 81.195 42.0268 81.8067 40.9259 81.8067C39.2133 81.8067 39.2133 81.4397 41.2928 79.2378C43.1277 77.2806 43.2501 76.5466 41.9045 75.8126C39.9472 74.5894 41.1705 72.0205 43.7394 72.0205C44.718 72.0205 46.5529 73.1215 47.8985 74.467Z" fill="white" fill-opacity="0.64"/>
<path d="M60.6427 72.6273C59.4194 75.6855 62.233 80.8232 64.8018 80.3339C66.2697 80.0892 66.8814 78.7436 66.8814 75.6855C66.8814 72.138 66.3921 71.2817 64.0679 71.037C62.4776 70.7924 61.0097 71.404 60.6427 72.6273ZM64.0679 74.0952C62.8446 74.5845 62.8446 75.0738 64.0679 76.6641C65.5358 78.499 65.4135 78.6213 63.5786 77.0311C62.3553 76.1748 61.3767 74.9515 61.3767 74.3399C61.3767 73.7282 62.3553 73.2389 63.5786 73.3613C64.9242 73.3613 65.0465 73.6059 64.0679 74.0952Z" fill="white" fill-opacity="0.64"/>
<path d="M51.8208 83.7558C48.7626 85.8353 48.2733 91.0954 50.8421 94.6428C53.044 97.701 59.6497 97.5787 61.9739 94.5205C65.8883 89.3828 62.5855 81.7985 56.4692 81.7985C55.3682 81.7985 53.2887 82.6548 51.8208 83.7558ZM61.4846 87.5479C62.8302 91.2177 60.0167 94.0312 55.4906 93.5419C52.0654 93.1749 50.5975 89.8721 52.0654 85.9576C53.1664 83.0218 60.2613 84.2451 61.4846 87.5479Z" fill="white" fill-opacity="0.64"/>
<path d="M4.71383 85.217C0.677045 89.6208 3.00125 97.6943 8.26131 97.6943C9.85156 97.6943 11.5641 96.838 11.9311 95.8594C12.4204 94.8808 13.399 94.0245 14.3776 94.0245C15.3563 94.0245 16.0902 93.5352 16.0902 92.9236C16.0902 92.312 16.4572 90.9664 16.8242 89.8654C17.4358 88.3975 16.8242 87.9082 14.133 87.9082C12.2981 87.9082 11.1972 87.5412 11.5641 87.0519C12.6651 86.0733 10.0962 83.0151 8.13898 83.0151C7.40502 83.0151 5.81477 83.9937 4.71383 85.217ZM9.72923 87.5412C9.48458 88.8868 10.4632 89.8654 12.4204 90.4771C15.3563 91.3333 15.3563 91.3333 12.7874 91.4557C10.8302 91.578 9.97388 92.312 9.97388 94.0245C9.97388 96.7157 7.52735 97.205 5.32546 95.0031C3.49056 93.1682 3.49056 88.7645 5.32546 86.9296C7.52735 84.7277 10.0962 85.0947 9.72923 87.5412Z" fill="white" fill-opacity="0.64"/>
<path d="M3.49033 101.639C0.0651783 104.331 -0.424129 109.346 2.51171 112.282C7.52711 117.297 16.09 114.117 16.09 107.266C16.09 101.884 8.01642 98.3365 3.49033 101.639ZM12.5425 105.309C13.5211 107.266 13.5211 108.123 12.2979 108.857C11.3192 109.468 11.1969 109.958 11.8086 109.958C12.5425 109.958 12.1755 110.569 11.1969 111.181C8.01642 113.26 4.10196 112.526 3.24568 109.958C0.921466 102.74 8.99503 98.7035 12.5425 105.309Z" fill="white" fill-opacity="0.64"/>
<path d="M31.6369 85.0794C30.536 86.1803 30.536 87.8929 31.7592 87.7705C34.3281 87.2812 34.5727 88.1375 32.6155 90.3394C30.6583 92.5413 30.6583 92.7859 32.4932 93.5199C35.062 94.4985 33.7165 96.4557 30.2913 96.4557C26.8662 96.4557 24.6643 94.2539 24.6643 90.8287C24.6643 87.1589 26.6215 86.058 28.2117 88.7492C29.6797 91.318 31.1476 90.3394 30.0466 87.4036C28.2117 82.5105 21.3614 86.7919 22.707 92.1743C23.9303 96.8227 28.8234 99.6362 32.7378 97.8013C35.3067 96.7004 35.796 95.8441 35.1844 93.3976C34.8174 91.8073 34.9397 90.0948 35.6737 89.7278C36.4076 89.2385 36.2853 88.1375 35.3067 86.6696C33.7165 84.1007 32.8602 83.7338 31.6369 85.0794Z" fill="white" fill-opacity="0.64"/>
<path d="M35.6727 98.9107C32.7369 101.847 32.6145 104.782 35.1834 108.452C37.5076 111.877 43.3793 112 46.6821 108.697C49.4956 105.883 49.618 104.66 47.7831 100.99C44.9695 95.7302 39.7095 94.8739 35.6727 98.9107ZM44.6026 103.681C44.2356 109.308 42.6453 110.654 38.7309 108.941C36.529 107.963 35.6727 106.617 35.6727 104.048C35.6727 99.5223 36.6513 98.666 41.1774 99.1553C44.4802 99.5223 44.8472 99.8893 44.6026 103.681Z" fill="white" fill-opacity="0.64"/>
<path d="M23.8168 107.103C22.9605 107.348 22.2266 108.571 22.2266 109.794C22.2266 114.32 27.8536 116.522 30.6671 113.097C31.8904 111.752 31.5234 110.773 29.4438 108.816C26.508 106.125 26.2633 106.002 23.8168 107.103ZM28.7099 111.996C27.8536 112.241 26.3857 112.241 25.6517 111.996C24.7954 111.629 25.4071 111.385 27.1196 111.385C28.8322 111.385 29.4438 111.629 28.7099 111.996Z" fill="white" fill-opacity="0.64"/>
<path d="M-46.5354 16.6193C-55.4652 26.1607 -62.6825 43.6535 -61.9486 53.8066L-61.5816 59.189L-46.9024 59.9229C-22.07 61.2685 3.86326 61.1462 3.86326 59.8006C3.86326 58.088 -40.1744 13.3164 -41.887 13.3164C-42.7432 13.3164 -44.8228 14.7843 -46.5354 16.6193ZM-35.8929 20.656C-35.4036 21.39 -36.5046 23.5919 -38.3395 25.7938C-42.8656 31.0538 -48.3703 42.5525 -49.3489 48.3019C-50.9391 58.5773 -51.0615 58.5773 -54.8536 58.5773C-58.2788 58.5773 -58.5234 58.2104 -58.5234 53.9289C-58.5234 39.739 -47.3917 19.4328 -39.6851 19.4328C-37.9725 19.4328 -36.2599 20.0444 -35.8929 20.656ZM1.17207 59.189C0.805092 59.6783 -10.6936 59.556 -24.2719 59.0666L-48.9819 58.2104L-48.3703 53.0726C-47.2693 45.1214 -42.9879 34.9683 -38.0948 28.6073L-33.6911 22.8579L-15.9537 40.5953C-6.04521 50.5038 1.53905 58.822 1.17207 59.189Z" fill="white" fill-opacity="0.64"/>
<path d="M1555.21 88.9108C1543.67 90.6983 1534.56 94.5983 1532.45 98.6608C1531.48 100.448 1527.09 103.698 1522.7 105.973C1513.11 110.848 1511 113.936 1504.5 131.486C1501.9 138.961 1498.16 149.036 1496.37 153.911C1489.87 171.623 1496.86 191.448 1515.87 209.486C1525.3 218.261 1529.36 220.861 1543.02 226.223C1560.57 233.048 1573.25 234.348 1587.22 230.448C1595.35 228.173 1617.45 211.923 1627.37 200.873L1634.52 192.911L1635.66 176.336C1637.93 143.673 1637.61 139.286 1632.41 129.698C1624.93 116.048 1612.58 104.998 1595.51 96.5483C1578.93 88.4233 1570 86.6358 1555.21 88.9108ZM1589.34 102.398C1601.2 106.623 1614.53 120.111 1622 135.223C1627.04 145.623 1627.53 147.736 1627.53 161.386C1627.53 175.848 1627.37 176.661 1622.17 183.323C1619.24 187.223 1615.34 193.723 1613.55 197.786C1611.77 201.848 1609.82 206.236 1609 207.536C1607.05 211.436 1596.81 215.823 1586.09 217.286C1580.72 218.098 1573.08 219.886 1569.18 221.348C1562.84 223.786 1561.38 223.786 1552.93 221.673C1540.74 218.423 1536.52 215.498 1530.5 205.748C1527.74 201.198 1522.86 195.836 1519.45 193.723C1509.86 187.711 1505.63 177.473 1505.63 159.598C1505.63 141.886 1506.61 139.773 1523.68 121.248C1538.79 104.673 1542.69 101.911 1551.31 101.911C1555.04 101.911 1560.57 100.773 1563.49 99.4733C1569.83 96.8733 1576.01 97.5233 1589.34 102.398Z" fill="white" fill-opacity="0.6"/>
<path d="M1563.01 107.922C1560.57 109.547 1558.13 111.822 1557.65 112.96C1556.51 115.885 1559.76 119.785 1563.17 119.785C1565.45 119.622 1565.45 119.46 1563.01 117.997C1558.95 115.722 1559.43 112.472 1563.98 109.547C1568.53 106.622 1572.11 108.41 1573.57 114.422C1574.55 118.485 1570.97 122.222 1567.88 120.435C1566.1 119.46 1566.1 119.785 1567.88 121.572C1569.51 123.197 1570.65 123.36 1572.76 121.897C1577.47 118.81 1574.71 104.997 1569.18 105.16C1568.21 105.16 1565.45 106.46 1563.01 107.922Z" fill="white" fill-opacity="0.6"/>
<path d="M1582.99 111.827C1579.09 113.452 1579.09 113.452 1588.52 123.039C1593.88 128.402 1598.76 132.789 1599.41 132.789C1600.06 132.789 1600.71 129.702 1600.71 125.802C1600.71 119.139 1596.48 111.664 1592.58 111.664C1591.93 111.664 1590.31 111.339 1589.01 111.014C1587.87 110.527 1585.11 111.014 1582.99 111.827Z" fill="white" fill-opacity="0.6"/>
<path d="M1539.93 118.329C1536.52 120.929 1535.7 123.042 1535.7 128.729C1535.7 132.954 1536.68 136.367 1538.14 137.667C1539.6 138.804 1540.9 139.454 1541.23 139.129C1542.69 137.504 1551.96 118.004 1551.96 116.542C1551.96 113.779 1544.48 114.754 1539.93 118.329ZM1541.39 131.167C1541.88 131.979 1541.55 132.792 1540.74 132.792C1539.77 132.792 1538.95 131.979 1538.95 131.167C1538.95 130.192 1539.28 129.542 1539.6 129.542C1540.09 129.542 1540.9 130.192 1541.39 131.167Z" fill="white" fill-opacity="0.6"/>
<path d="M1555.37 128.562C1554.07 130.187 1554.07 131.162 1555.69 132.462C1558.45 134.737 1562.52 132.137 1561.22 128.887C1559.92 125.637 1557.8 125.637 1555.37 128.562ZM1560.08 130.187C1560.08 130.675 1559.43 131.487 1558.45 131.975C1557.64 132.462 1556.83 132.137 1556.83 131.325C1556.83 130.35 1557.64 129.537 1558.45 129.537C1559.43 129.537 1560.08 129.862 1560.08 130.187Z" fill="white" fill-opacity="0.6"/>
<path d="M1575.84 127.426C1575.19 127.914 1574.71 130.026 1574.87 131.814C1574.87 135.064 1575.03 134.901 1576.49 131.326C1577.47 128.889 1578.77 127.914 1580.56 128.564C1581.86 129.051 1582.51 128.889 1582.02 127.914C1580.88 126.126 1577.47 125.801 1575.84 127.426Z" fill="white" fill-opacity="0.6"/>
<path d="M1520.43 133.269C1514.9 137.656 1515.55 139.769 1523.84 143.669C1529.37 146.269 1529.69 146.269 1531.64 143.506C1534.73 139.281 1531.48 129.531 1526.93 129.531C1525.95 129.531 1523.03 131.319 1520.43 133.269ZM1530.5 136.031C1532.62 141.719 1530.99 143.181 1524.33 141.719C1517.83 140.256 1517.01 138.469 1521.4 134.569C1526.28 129.856 1528.55 130.344 1530.5 136.031Z" fill="white" fill-opacity="0.6"/>
<path d="M1585.92 131.808C1587.87 134.083 1587.71 135.058 1584.46 138.47C1579.91 143.183 1581.53 143.995 1586.24 139.445C1589.98 136.033 1589.82 130.995 1586.08 129.858C1583.97 129.045 1583.97 129.37 1585.92 131.808Z" fill="white" fill-opacity="0.6"/>
<path d="M1603.64 134.578C1598.44 138.315 1597.63 143.84 1602.02 145.14C1603.48 145.628 1606.08 146.765 1607.7 147.578C1609.33 148.553 1612.09 148.715 1614.04 148.065C1616.97 147.253 1617.13 146.278 1616.32 140.428C1615.67 136.853 1614.85 133.278 1614.37 132.465C1612.9 130.19 1608.19 131.165 1603.64 134.578ZM1611.6 134.09C1614.69 136.04 1615.83 143.353 1613.39 145.303C1610.95 147.253 1600.71 143.678 1600.71 140.753C1600.71 139.128 1607.05 132.953 1608.84 132.79C1609.33 132.79 1610.47 133.44 1611.6 134.09Z" fill="white" fill-opacity="0.6"/>
<path d="M1574.71 137.984C1574.71 139.447 1575.52 141.234 1576.5 141.722C1579.26 143.509 1579.42 142.047 1576.99 138.634C1575.04 135.872 1574.71 135.872 1574.71 137.984Z" fill="white" fill-opacity="0.6"/>
<path d="M1549.19 138.802C1547.89 139.289 1547.08 142.377 1547.08 146.602C1547.08 150.827 1547.89 153.914 1549.19 154.402C1552.12 155.539 1560.08 150.339 1560.08 147.252C1560.08 143.189 1552.77 137.502 1549.19 138.802ZM1555.37 142.539C1556.99 143.514 1558.46 145.302 1558.46 146.602C1558.46 148.877 1553.74 152.289 1550.49 152.289C1549.52 152.289 1548.7 149.689 1548.7 146.602C1548.7 140.589 1550.17 139.777 1555.37 142.539Z" fill="white" fill-opacity="0.6"/>
<path d="M1587.72 145.789C1587.72 147.902 1588.85 149.039 1590.97 149.039C1593.08 149.039 1594.22 147.902 1594.22 145.789C1594.22 143.677 1593.08 142.539 1590.97 142.539C1588.85 142.539 1587.72 143.677 1587.72 145.789ZM1592.59 145.789C1592.59 146.602 1591.94 147.414 1590.97 147.414C1590.15 147.414 1589.34 146.602 1589.34 145.789C1589.34 144.814 1590.15 144.164 1590.97 144.164C1591.94 144.164 1592.59 144.814 1592.59 145.789Z" fill="white" fill-opacity="0.6"/>
<path d="M1520.91 149.364C1520.91 151.477 1520.43 157.977 1519.61 163.989C1518.96 170.164 1519.13 175.039 1519.78 175.039C1523.03 175.039 1529.04 169.677 1530.83 165.289C1533.27 159.277 1530.83 152.127 1524.98 148.227C1521.24 145.789 1521.08 145.952 1520.91 149.364ZM1527.58 164.314C1527.58 164.639 1526.28 165.939 1524.81 167.077C1522.21 169.189 1522.05 169.027 1524.16 166.427C1526.28 163.827 1527.58 163.014 1527.58 164.314Z" fill="white" fill-opacity="0.6"/>
<path d="M1569.02 157.647C1569.51 164.147 1570.64 171.784 1571.13 174.872L1572.27 180.397L1576.98 176.497C1583.81 170.647 1584.78 159.597 1578.93 152.772C1576.66 150.009 1573.24 147.409 1571.29 146.922C1567.88 145.947 1567.88 146.272 1569.02 157.647ZM1576.82 169.347C1576.33 170.809 1575.52 171.622 1575.19 171.134C1574.71 170.647 1574.87 169.672 1575.52 168.697C1576.98 166.097 1577.96 166.584 1576.82 169.347Z" fill="white" fill-opacity="0.6"/>
<path d="M1535.21 148.552C1532.94 150.664 1534.24 153.914 1537.32 153.914C1539.44 153.914 1540.57 152.777 1540.57 150.664C1540.57 147.577 1537.32 146.277 1535.21 148.552ZM1538.95 150.664C1538.95 151.477 1538.3 152.289 1537.32 152.289C1536.51 152.289 1535.7 151.477 1535.7 150.664C1535.7 149.689 1536.51 149.039 1537.32 149.039C1538.3 149.039 1538.95 149.689 1538.95 150.664Z" fill="white" fill-opacity="0.6"/>
<path d="M1596.33 156.516C1594.05 158.791 1592.59 160.904 1592.92 161.391C1593.4 161.716 1599.74 162.691 1606.89 163.341C1621.52 164.804 1622.66 163.991 1616.81 156.516C1612.09 150.666 1602.34 150.504 1596.33 156.516Z" fill="white" fill-opacity="0.6"/>
<path d="M1559.11 160.57C1557.64 163.007 1560.89 165.932 1563.98 164.795C1565.44 164.145 1566.09 162.682 1565.61 161.22C1564.47 158.457 1560.73 157.97 1559.11 160.57ZM1563.33 162.032C1563.33 162.845 1562.52 163.657 1561.54 163.657C1560.73 163.657 1560.41 162.845 1560.89 162.032C1561.38 161.057 1562.19 160.407 1562.68 160.407C1563.01 160.407 1563.33 161.057 1563.33 162.032Z" fill="white" fill-opacity="0.6"/>
<path d="M1541.07 163.179C1536.68 166.104 1536.35 169.029 1540.09 171.954C1542.53 174.066 1542.53 173.904 1540.42 170.654C1538.47 167.404 1538.63 166.754 1541.39 164.641C1546.43 160.741 1549.84 161.554 1550.82 166.429C1551.96 172.279 1550.82 173.904 1546.59 172.766C1544.32 172.279 1543.83 172.441 1544.97 173.579C1547.41 176.016 1552.61 174.716 1553.26 171.629C1554.07 167.241 1550.66 160.416 1547.57 160.579C1545.94 160.579 1543.02 161.716 1541.07 163.179Z" fill="white" fill-opacity="0.6"/>
<path d="M1587.23 169.19C1585.93 172.278 1589.66 175.203 1592.43 173.415C1595.19 171.79 1593.56 166.915 1590.31 166.915C1589.18 166.915 1587.71 167.89 1587.23 169.19ZM1591.78 170.165C1592.26 170.978 1591.94 171.79 1591.13 171.79C1590.15 171.79 1589.34 170.978 1589.34 170.165C1589.34 169.19 1589.66 168.54 1589.99 168.54C1590.48 168.54 1591.29 169.19 1591.78 170.165Z" fill="white" fill-opacity="0.6"/>
<path d="M1527.58 181.695C1527.58 185.92 1532.94 194.045 1537.17 196.645C1545.13 201.357 1555.05 199.732 1561.55 192.745C1565.93 188.032 1564.8 186.732 1555.53 185.595C1551.31 184.945 1545.78 183.97 1543.02 183.157C1533.27 180.557 1527.58 179.907 1527.58 181.695ZM1538.63 190.47C1538.14 190.957 1537.17 190.145 1536.68 188.52C1535.7 186.245 1535.87 186.082 1537.49 187.545C1538.63 188.682 1539.12 189.982 1538.63 190.47Z" fill="white" fill-opacity="0.6"/>
<path d="M1517.99 183.81C1516.53 185.435 1516.69 186.41 1518.64 188.035C1521.73 190.635 1525.3 187.873 1523.84 184.135C1522.54 180.885 1520.43 180.885 1517.99 183.81ZM1521.89 184.785C1522.38 185.598 1522.05 186.41 1521.24 186.41C1520.26 186.41 1519.45 185.598 1519.45 184.785C1519.45 183.81 1519.78 183.16 1520.1 183.16C1520.59 183.16 1521.4 183.81 1521.89 184.785Z" fill="white" fill-opacity="0.6"/>
<path d="M1591.93 183.167C1589.98 189.017 1584.62 208.192 1584.94 208.517C1585.11 208.517 1587.71 208.029 1590.47 207.217C1596 205.754 1600.71 199.254 1600.71 193.079C1600.71 188.529 1593.07 179.917 1591.93 183.167ZM1593.4 201.042C1592.91 201.854 1591.44 202.667 1590.47 202.667C1589.33 202.667 1589.49 202.017 1590.96 201.042C1594.05 199.092 1594.7 199.092 1593.4 201.042Z" fill="white" fill-opacity="0.6"/>
<path d="M1575.03 187.55C1575.85 191.775 1581.21 192.262 1581.21 188.2C1581.21 185.762 1580.23 184.787 1577.8 184.787C1575.52 184.787 1574.71 185.6 1575.03 187.55ZM1579.58 188.037C1579.58 188.85 1578.93 189.662 1577.96 189.662C1577.15 189.662 1576.33 188.85 1576.33 188.037C1576.33 187.062 1577.15 186.412 1577.96 186.412C1578.93 186.412 1579.58 187.062 1579.58 188.037Z" fill="white" fill-opacity="0.6"/>
<path d="M1561.22 202.342C1557.65 210.467 1557.81 211.929 1561.71 214.042C1563.98 215.342 1565.93 215.342 1568.21 214.042C1572.76 211.604 1572.27 210.467 1567.23 211.767C1561.87 213.229 1559.92 210.304 1562.2 204.129C1564.47 198.117 1567.56 197.142 1572.27 200.717C1576.66 203.804 1577.31 207.379 1574.39 210.629C1572.6 212.254 1572.92 212.579 1575.52 212.092C1580.72 211.279 1580.56 204.942 1575.2 200.229C1568.54 194.379 1564.47 195.029 1561.22 202.342Z" fill="white" fill-opacity="0.6"/>
<path d="M1545.62 207.539C1542.86 209.164 1544.48 214.039 1547.73 214.039C1548.87 214.039 1550.33 213.064 1550.82 211.764C1552.12 208.677 1548.38 205.752 1545.62 207.539ZM1548.71 210.789C1548.71 211.602 1548.38 212.414 1548.06 212.414C1547.57 212.414 1546.76 211.602 1546.27 210.789C1545.78 209.814 1546.11 209.164 1546.92 209.164C1547.89 209.164 1548.71 209.814 1548.71 210.789Z" fill="white" fill-opacity="0.6"/>
</svg>
