<svg width="1600" height="1009" viewBox="0 0 1600 1009" fill="none" xmlns="http://www.w3.org/2000/svg">
<rect width="1600" height="1009" fill="#FBB403" fill-opacity="0.1"/>
<path d="M1505.54 804.357C1485.98 810.623 1465.67 823.346 1465.67 829.422C1465.67 831.511 1474.97 842.714 1487.88 856.385C1500.03 869.107 1515.22 885.058 1521.68 891.704L1533.07 903.666L1484.46 902.337C1428.26 900.818 1430.16 900.248 1432.25 917.528C1434.71 938.415 1450.85 971.645 1459.97 974.493C1461.87 975.063 1463.77 977.151 1464.34 979.05C1465.48 983.417 1485.79 996.899 1499.46 1002.22C1506.11 1004.87 1515.22 1006.58 1522.82 1006.77C1529.85 1006.96 1536.3 1007.72 1537.44 1008.48C1540.86 1010.57 1563.65 1006.01 1576.37 1000.89C1589.85 995.57 1606.18 984.177 1606.18 980.379C1606.18 978.86 1608.08 977.341 1610.55 976.582C1615.86 975.252 1628.78 955.694 1634.66 940.314C1640.17 925.503 1641.5 898.16 1637.51 880.88C1633.71 865.12 1622.51 843.473 1614.34 837.207C1610.93 834.359 1608.08 831.131 1608.08 830.181C1608.08 824.485 1577.51 807.016 1560.61 803.028C1546.75 799.8 1517.5 800.559 1505.54 804.357ZM1535.92 813.092C1535.92 819.738 1535.92 819.738 1527.76 819.738C1515.41 819.738 1501.55 824.485 1488.45 833.409C1478.96 839.676 1476.3 840.625 1474.97 838.536C1470.98 832.08 1478.39 823.346 1494.53 814.801C1505.35 809.294 1514.66 806.826 1527 806.636L1535.92 806.446V813.092ZM1565.35 811.003C1576.94 814.041 1585.86 818.598 1595.17 826.004C1604.09 833.219 1605.04 836.068 1600.48 841.005L1596.69 845.182L1590.42 839.106C1582.25 831.321 1561.56 821.826 1549.4 820.307C1541.81 819.358 1539.72 818.409 1539.72 815.75C1539.72 808.535 1549.4 806.636 1565.35 811.003ZM1535.73 849.549C1535.54 865.12 1534.97 882.779 1534.21 888.855L1533.07 900.059L1507.44 872.905C1493.39 858.094 1481.62 845.182 1481.24 844.423C1480.48 842.334 1491.11 834.549 1501.36 829.232C1509.72 825.054 1521.11 822.206 1530.8 821.826L1535.92 821.637L1535.73 849.549ZM1570.67 829.802C1576.18 832.27 1583.96 837.207 1587.76 840.625L1594.79 846.701L1568.01 872.715C1553.2 886.957 1540.29 898.729 1539.53 899.109C1537.44 899.869 1537.25 873.095 1538.96 843.283L1540.29 822.396L1550.35 823.725C1555.86 824.485 1564.97 827.143 1570.67 829.802ZM1626.69 865.879C1628.78 871.386 1631.05 880.69 1631.81 886.577C1632.95 895.881 1632.57 897.78 1629.16 901.198C1626.88 903.476 1624.41 905.185 1623.65 905.185C1622.89 905.185 1621.18 899.109 1620.04 891.704C1617.95 877.842 1608.65 856.765 1602.19 850.879C1598.58 847.651 1598.58 847.461 1602.76 842.904L1607.13 838.346L1615.1 847.081C1619.47 852.018 1624.79 860.373 1626.69 865.879ZM1605.8 861.702C1612.83 873.475 1617.57 887.716 1617.57 897.4V904.236L1583.96 903.666C1565.35 903.476 1548.07 902.907 1545.42 902.717C1541.05 902.337 1543.71 899.299 1567.63 876.133C1582.63 861.702 1595.93 850.119 1597.25 850.499C1598.39 851.069 1602.38 856.006 1605.8 861.702ZM1451.23 916.199C1452.56 927.782 1459.97 945.441 1468.32 956.264C1472.88 962.34 1473.07 963.1 1470.03 966.328C1465.48 971.455 1462.82 970.505 1456.36 962.34C1439.84 941.453 1433.57 905.185 1446.49 905.185C1449.34 905.185 1450.28 907.274 1451.23 916.199ZM1526.24 912.021C1522.82 915.819 1509.72 928.161 1497.57 939.744L1475.16 960.631L1471.36 956.264C1463.58 946.96 1455.79 928.541 1454.84 916.768L1453.7 905.185H1493.39H1532.88L1526.24 912.021ZM1618.33 915.059C1615.86 931.959 1604.09 956.644 1596.31 961.391C1595.17 962.15 1589.85 957.973 1583.77 951.517C1577.89 945.441 1565.92 932.908 1557 923.604L1540.67 907.084H1580.17H1619.47L1618.33 915.059ZM1633.14 918.667C1631.62 945.631 1610.17 976.772 1599.34 967.657C1597.06 965.758 1597.63 964.429 1602.38 959.112C1612.07 947.909 1621.37 925.313 1621.37 912.401C1621.37 907.464 1621.94 907.084 1627.64 907.844L1633.71 908.413L1633.14 918.667ZM1533.45 947.34C1532.69 968.227 1531.93 985.886 1531.55 986.266C1531.18 986.456 1525.86 985.886 1519.59 984.747C1506.87 982.468 1489.02 973.733 1482.38 966.518L1478.01 961.771L1505.54 935.377C1520.73 920.946 1533.45 908.983 1533.83 908.983C1534.21 908.983 1534.02 926.262 1533.45 947.34ZM1590.8 964.999C1590.99 971.455 1556.62 986.835 1542.38 986.835H1535.92V966.328C1535.92 955.125 1536.49 937.655 1537.25 927.402L1538.39 908.603L1564.59 935.947C1579.03 950.757 1590.8 963.859 1590.8 964.999ZM1483.89 971.835C1494.34 980.189 1510.48 987.025 1522.25 988.165C1531.18 989.114 1532.31 989.684 1531.74 993.291C1529.85 1006.39 1495.86 999.178 1474.97 981.139C1466.61 973.923 1466.61 973.923 1470.22 969.936C1474.78 964.809 1475.16 964.809 1483.89 971.835ZM1596.87 977.911C1594.41 984.177 1577.89 995.38 1565.35 999.178C1560.23 1000.7 1551.3 1002.03 1545.99 1002.03C1536.11 1002.03 1535.92 1001.84 1535.92 996.519C1535.92 991.393 1536.49 991.203 1548.45 989.114C1561.56 987.025 1581.11 978.67 1589.09 972.024C1592.89 968.796 1594.22 968.607 1596.31 970.505C1598.01 972.214 1598.2 974.303 1596.87 977.911Z" fill="#1D1D1D" fill-opacity="0.18"/>
<path d="M1519.62 832.062C1516.01 834.91 1516.01 834.91 1520.56 838.707C1525.88 843.265 1530.82 843.075 1531.77 838.138C1532.53 834.34 1529.11 829.213 1525.69 829.213C1524.36 829.213 1521.7 830.542 1519.62 832.062ZM1525.69 835.859C1527.4 837.378 1527.78 838.707 1526.83 838.707C1525.88 838.707 1523.98 837.378 1522.65 835.859C1521.32 834.34 1520.94 833.011 1521.51 833.011C1522.27 833.011 1524.17 834.34 1525.69 835.859Z" fill="#1D1D1D" fill-opacity="0.18"/>
<path d="M1494.54 839.321C1489.42 844.638 1489.23 848.436 1493.78 853.942C1500.43 862.107 1515.05 856.791 1515.05 846.157C1515.05 841.22 1508.4 834.954 1503.09 834.954C1500.62 834.954 1496.82 836.853 1494.54 839.321ZM1510.87 845.777C1511.25 850.334 1510.49 852.233 1507.65 853.942C1502.52 856.601 1496.06 853.373 1496.06 848.246C1496.06 841.03 1498.15 838.562 1504.42 839.131C1509.54 839.701 1510.3 840.461 1510.87 845.777Z" fill="#1D1D1D" fill-opacity="0.18"/>
<path d="M1516.54 855.226C1512.74 856.175 1510.46 861.492 1512.93 863.961C1514.26 865.29 1514.07 866.619 1512.17 867.948C1509.89 869.657 1509.89 870.607 1512.17 873.645C1513.69 875.734 1515.78 876.493 1517.29 875.544C1518.62 874.784 1521.66 874.025 1524.32 874.025C1530.97 873.835 1533.81 868.328 1530.21 862.062C1527.17 856.745 1521.85 854.087 1516.54 855.226ZM1527.17 861.872C1529.26 864.91 1529.45 866.809 1527.93 869.657C1526.03 873.265 1525.65 873.265 1523.56 870.417C1521.47 867.569 1520.9 867.569 1518.81 870.037C1517.48 871.556 1515.59 872.316 1514.64 871.746C1513.69 871.176 1514.26 869.088 1515.97 867.189C1518.81 864.151 1518.81 863.771 1515.97 862.632C1514.26 862.062 1513.5 860.733 1514.07 859.593C1516.16 856.175 1524.13 857.505 1527.17 861.872Z" fill="#1D1D1D" fill-opacity="0.18"/>
<path d="M1544.66 833.434C1542.95 835.712 1541.62 838.94 1541.62 840.649C1541.62 846.346 1547.32 852.042 1553.2 852.042C1558.52 852.042 1566.31 846.346 1566.31 842.358C1566.31 839.51 1562.32 832.294 1559.85 830.775C1555.48 827.737 1547.51 829.256 1544.66 833.434ZM1560.61 835.902C1563.46 839.51 1561.75 847.485 1557.57 849.004C1549.03 852.232 1542.76 843.687 1548.65 837.041C1552.63 832.294 1557.38 831.915 1560.61 835.902Z" fill="#1D1D1D" fill-opacity="0.18"/>
<path d="M1572.77 843.327C1572.2 844.846 1572.01 848.074 1572.39 850.542C1572.77 853.77 1574.1 854.909 1577.71 854.909C1583.6 854.909 1585.12 849.403 1580.37 844.276C1576.57 839.909 1574.1 839.719 1572.77 843.327ZM1578.66 846.365C1579.23 847.504 1578.47 847.694 1576.95 847.124C1573.53 845.795 1572.96 844.466 1575.62 844.466C1576.76 844.466 1578.09 845.225 1578.66 846.365ZM1579.61 850.922C1579.61 851.492 1578.85 852.441 1577.71 853.011C1576.76 853.58 1575.81 853.2 1575.81 852.251C1575.81 851.112 1576.76 850.162 1577.71 850.162C1578.85 850.162 1579.61 850.542 1579.61 850.922Z" fill="#1D1D1D" fill-opacity="0.18"/>
<path d="M1549.41 857.514C1548.08 858.464 1547.51 860.173 1548.27 861.502C1549.22 863.211 1548.65 863.401 1545.61 862.451C1542.19 861.502 1541.62 862.072 1541.62 866.059C1541.62 869.667 1542.57 870.996 1545.42 870.996C1547.89 870.996 1548.65 871.946 1548.08 873.654C1546.37 878.022 1554.53 879.541 1558.9 875.553C1567.64 867.578 1559.28 851.248 1549.41 857.514ZM1558.71 861.312C1561.37 866.629 1561.18 870.237 1557.57 873.654C1554.15 877.072 1550.36 875.743 1551.87 871.756C1552.63 869.857 1551.5 869.097 1548.27 869.097C1542.38 869.097 1542 865.869 1547.89 864.92C1550.74 864.54 1551.87 863.211 1551.5 860.932C1550.74 856.565 1556.24 856.755 1558.71 861.312Z" fill="#1D1D1D" fill-opacity="0.18"/>
<path d="M1586.42 862.613C1584.71 867.17 1588.7 870.967 1594.96 870.967C1598.95 870.967 1600.47 870.018 1600.47 867.55C1600.47 860.144 1588.88 856.156 1586.42 862.613ZM1591.92 865.271C1592.49 866.22 1592.11 867.17 1591.16 867.17C1590.02 867.17 1589.07 866.22 1589.07 865.271C1589.07 864.132 1589.45 863.372 1589.83 863.372C1590.4 863.372 1591.35 864.132 1591.92 865.271Z" fill="#1D1D1D" fill-opacity="0.18"/>
<path d="M1595.37 878.585C1587.01 882.003 1587.01 894.726 1595.37 899.473C1599.92 901.941 1601.06 901.941 1605.62 899.473C1614.17 894.726 1613.98 882.953 1605.24 878.965C1602.58 877.636 1600.11 876.687 1599.92 876.876C1599.74 876.876 1597.65 877.636 1595.37 878.585ZM1606.19 883.333C1608.85 886.561 1607.14 896.434 1604.29 894.726C1603.15 894.156 1602.39 894.536 1602.39 895.485C1602.39 896.624 1601.25 897.574 1599.74 897.574C1596.32 897.574 1591 892.447 1591 889.029C1591 882.003 1601.82 878.016 1606.19 883.333Z" fill="#1D1D1D" fill-opacity="0.18"/>
<path d="M1568.19 881.1C1561.92 884.138 1560.79 891.733 1566.1 893.252C1568.38 893.822 1570.09 895.91 1570.09 897.809C1570.09 900.468 1571.42 901.417 1575.03 901.417C1578.82 901.417 1579.58 900.658 1578.63 897.809C1577.87 895.341 1578.63 894.012 1581.48 893.252C1586.61 891.923 1586.42 885.277 1581.1 881.669C1575.98 878.061 1574.46 878.061 1568.19 881.1ZM1581.48 885.277C1584.14 888.505 1582.43 892.113 1578.63 890.594C1576.74 890.024 1575.79 890.974 1575.79 893.632C1575.79 895.91 1575.03 897.619 1573.89 897.619C1572.94 897.619 1571.99 895.91 1571.99 893.632C1571.99 890.974 1571.04 890.024 1569.33 890.594C1565.53 892.113 1564.2 890.024 1566.48 886.037C1568.76 881.669 1578.06 881.289 1581.48 885.277Z" fill="#1D1D1D" fill-opacity="0.18"/>
<path d="M1464.14 910.165C1457.69 914.532 1459.02 925.925 1466.23 929.913C1470.79 932.382 1471.93 932.382 1476.68 929.913C1483.51 926.115 1484.65 916.621 1479.14 911.115C1474.4 906.367 1469.84 905.988 1464.14 910.165ZM1477.05 914.722C1482.75 920.419 1479.52 927.065 1471.17 927.065C1465.85 927.065 1464.52 926.305 1464.14 922.697C1463.76 920.419 1464.52 918.52 1465.85 918.52C1467.18 918.52 1467.75 917.95 1466.99 917.381C1465.85 916.052 1469.46 911.115 1471.93 910.925C1472.69 910.925 1474.97 912.634 1477.05 914.722Z" fill="#1D1D1D" fill-opacity="0.18"/>
<path d="M1493.21 908.969C1492.64 909.918 1492.45 911.627 1493.02 912.577C1493.59 913.526 1492.45 914.665 1490.36 915.235C1482.39 917.324 1488.65 929.856 1497.39 929.856C1503.84 929.856 1510.11 923.59 1508.59 918.843C1506.69 913.146 1504.03 913.526 1504.98 919.223C1506.69 927.388 1492.64 930.805 1489.6 923.02C1488.08 919.033 1489.79 916.564 1493.21 917.893C1495.11 918.463 1496.06 917.514 1496.06 914.855C1496.06 912.577 1497.01 910.868 1498.15 910.868C1499.1 910.868 1499.85 912.577 1499.48 914.665C1499.1 916.564 1499.48 918.273 1500.42 918.463C1501.18 918.463 1501.75 918.083 1501.75 917.514C1501.75 916.944 1501.75 914.476 1501.75 911.817C1501.75 908.399 1500.8 907.07 1498.15 907.07C1496.06 907.07 1493.78 907.83 1493.21 908.969Z" fill="#1D1D1D" fill-opacity="0.18"/>
<path d="M1471.36 940.888C1471.36 945.635 1477.63 951.142 1481.43 949.622C1489.4 946.584 1485.98 937.47 1476.87 937.47C1472.69 937.47 1471.36 938.419 1471.36 940.888ZM1482.75 942.977C1482.75 944.116 1481.8 945.445 1480.48 946.205C1479.15 947.154 1478.96 946.774 1479.91 945.065C1481.05 943.166 1480.67 942.787 1478.39 943.736C1476.49 944.306 1475.16 944.116 1475.16 943.166C1475.16 942.027 1476.87 941.268 1478.96 941.268C1481.05 941.268 1482.75 942.027 1482.75 942.977Z" fill="#1D1D1D" fill-opacity="0.18"/>
<path d="M1566.67 913.174C1563.83 916.022 1563.64 920.39 1566.67 920.39C1567.81 920.39 1567.62 921.719 1565.72 923.808C1563.26 926.466 1563.07 927.795 1564.78 929.504C1567.62 932.352 1571.99 932.542 1571.99 929.884C1571.99 928.744 1574.08 928.365 1576.93 929.124C1585.28 931.213 1588.32 921.529 1581.49 914.693C1577.31 910.516 1570.09 909.756 1566.67 913.174ZM1579.59 916.592C1583.76 920.769 1584.14 922.099 1581.68 925.896C1580.16 928.175 1579.4 928.175 1577.12 926.276C1575.22 924.757 1573.89 924.567 1572.94 926.086C1572.37 927.036 1570.47 927.985 1568.76 927.985C1566.1 927.985 1566.1 927.415 1569.33 923.997C1572.18 920.959 1572.37 919.82 1570.28 918.681C1567.24 916.782 1569.14 912.794 1573.13 912.794C1574.65 912.794 1577.5 914.503 1579.59 916.592Z" fill="#1D1D1D" fill-opacity="0.18"/>
<path d="M1599.37 913.738C1597.47 918.485 1601.84 926.46 1605.83 925.7C1608.1 925.32 1609.05 923.232 1609.05 918.485C1609.05 912.978 1608.29 911.649 1604.69 911.269C1602.22 910.889 1599.94 911.839 1599.37 913.738ZM1604.69 916.016C1602.79 916.776 1602.79 917.535 1604.69 920.004C1606.97 922.852 1606.78 923.042 1603.93 920.573C1602.03 919.244 1600.51 917.345 1600.51 916.396C1600.51 915.446 1602.03 914.687 1603.93 914.877C1606.02 914.877 1606.21 915.257 1604.69 916.016Z" fill="#1D1D1D" fill-opacity="0.18"/>
<path d="M1585.68 931.003C1580.93 934.231 1580.17 942.396 1584.16 947.902C1587.58 952.649 1597.83 952.46 1601.44 947.712C1607.52 939.737 1602.39 927.965 1592.89 927.965C1591.19 927.965 1587.96 929.294 1585.68 931.003ZM1600.68 936.889C1602.77 942.586 1598.4 946.953 1591.37 946.193C1586.06 945.624 1583.78 940.497 1586.06 934.421C1587.77 929.863 1598.78 931.762 1600.68 936.889Z" fill="#1D1D1D" fill-opacity="0.18"/>
<path d="M1512.56 933.276C1506.29 940.112 1509.9 952.644 1518.06 952.644C1520.53 952.644 1523.19 951.315 1523.76 949.796C1524.52 948.277 1526.04 946.948 1527.56 946.948C1529.08 946.948 1530.22 946.188 1530.22 945.239C1530.22 944.29 1530.79 942.201 1531.36 940.492C1532.31 938.213 1531.36 937.454 1527.18 937.454C1524.33 937.454 1522.62 936.884 1523.19 936.125C1524.9 934.605 1520.91 929.858 1517.87 929.858C1516.73 929.858 1514.27 931.377 1512.56 933.276ZM1520.34 936.884C1519.96 938.973 1521.48 940.492 1524.52 941.441C1529.08 942.77 1529.08 942.77 1525.09 942.96C1522.05 943.15 1520.72 944.29 1520.72 946.948C1520.72 951.125 1516.92 951.885 1513.51 948.467C1510.66 945.619 1510.66 938.783 1513.51 935.935C1516.92 932.517 1520.91 933.086 1520.34 936.884Z" fill="#1D1D1D" fill-opacity="0.18"/>
<path d="M1489.8 953.767C1487.33 956.235 1488.47 961.552 1492.27 964.97C1497.21 969.337 1500.44 966.679 1499.49 959.083C1498.92 953.767 1493.03 950.539 1489.8 953.767ZM1494.17 958.324C1491.7 960.033 1492.84 960.982 1496.64 960.413C1497.4 960.413 1497.97 960.982 1497.97 962.121C1497.97 964.78 1494.93 964.4 1492.46 961.552C1490.37 958.893 1491.51 956.425 1494.93 956.425C1496.07 956.425 1495.69 957.374 1494.17 958.324Z" fill="#1D1D1D" fill-opacity="0.18"/>
<path d="M1510.66 958.775C1505.34 962.953 1504.58 970.738 1509.14 975.295C1516.93 983.081 1530.22 978.144 1530.22 967.51C1530.22 959.155 1517.69 953.649 1510.66 958.775ZM1524.71 964.472C1526.23 967.51 1526.23 968.839 1524.33 969.979C1522.81 970.928 1522.62 971.688 1523.57 971.688C1524.71 971.688 1524.14 972.637 1522.62 973.586C1517.69 976.814 1511.61 975.675 1510.28 971.688C1506.67 960.484 1519.2 954.218 1524.71 964.472Z" fill="#1D1D1D" fill-opacity="0.18"/>
<path d="M1554.36 933.068C1552.65 934.777 1552.65 937.435 1554.55 937.246C1558.53 936.486 1558.91 937.815 1555.88 941.233C1552.84 944.651 1552.84 945.031 1555.69 946.17C1559.67 947.689 1557.58 950.727 1552.27 950.727C1546.95 950.727 1543.53 947.309 1543.53 941.993C1543.53 936.296 1546.57 934.587 1549.04 938.765C1551.32 942.752 1553.6 941.233 1551.89 936.676C1549.04 929.081 1538.41 935.727 1540.49 944.081C1542.39 951.297 1549.99 955.664 1556.06 952.816C1560.05 951.107 1560.81 949.778 1559.86 945.98C1559.29 943.512 1559.48 940.853 1560.62 940.284C1561.76 939.524 1561.57 937.815 1560.05 935.537C1557.58 931.549 1556.25 930.979 1554.36 933.068Z" fill="#1D1D1D" fill-opacity="0.18"/>
<path d="M1560.61 954.53C1556.05 959.087 1555.86 963.644 1559.85 969.341C1563.46 974.658 1572.57 974.847 1577.7 969.721C1582.07 965.353 1582.26 963.454 1579.41 957.758C1575.04 949.593 1566.88 948.264 1560.61 954.53ZM1574.47 961.935C1573.9 970.67 1571.43 972.759 1565.36 970.1C1561.94 968.581 1560.61 966.493 1560.61 962.505C1560.61 955.479 1562.13 954.15 1569.16 954.91C1574.28 955.479 1574.85 956.049 1574.47 961.935Z" fill="#1D1D1D" fill-opacity="0.18"/>
<path d="M1542.21 967.257C1540.88 967.636 1539.74 969.535 1539.74 971.434C1539.74 978.46 1548.47 981.878 1552.84 976.561C1554.74 974.472 1554.17 972.953 1550.94 969.915C1546.39 965.738 1546.01 965.548 1542.21 967.257ZM1549.8 974.852C1548.47 975.232 1546.2 975.232 1545.06 974.852C1543.73 974.282 1544.68 973.902 1547.34 973.902C1549.99 973.902 1550.94 974.282 1549.8 974.852Z" fill="#1D1D1D" fill-opacity="0.18"/>
<path d="M1433.01 826.803C1419.14 841.614 1407.94 868.767 1409.08 884.528L1409.65 892.882L1432.44 894.022C1470.98 896.11 1511.24 895.921 1511.24 893.832C1511.24 891.173 1442.88 821.676 1440.22 821.676C1438.89 821.676 1435.66 823.955 1433.01 826.803ZM1449.53 833.069C1450.28 834.208 1448.58 837.626 1445.73 841.044C1438.7 849.209 1430.16 867.058 1428.64 875.983C1426.17 891.933 1425.98 891.933 1420.09 891.933C1414.78 891.933 1414.4 891.363 1414.4 884.717C1414.4 862.691 1431.68 831.17 1443.64 831.17C1446.3 831.17 1448.96 832.12 1449.53 833.069ZM1507.06 892.882C1506.49 893.642 1488.64 893.452 1467.56 892.693L1429.21 891.363L1430.16 883.388C1431.87 871.046 1438.51 855.285 1446.11 845.412L1452.94 836.487L1480.48 864.02C1495.86 879.401 1507.63 892.313 1507.06 892.882Z" fill="#1D1D1D" fill-opacity="0.18"/>
<path d="M1447.65 852.061C1443.85 856.429 1443.28 864.024 1446.7 868.202C1450.31 872.569 1461.13 871.809 1464.55 866.872C1468.54 861.176 1468.35 856.619 1463.79 852.061C1459.04 847.314 1452.02 847.124 1447.65 852.061ZM1461.89 854.91C1465.31 856.998 1463.98 865.163 1459.99 867.252C1454.49 870.29 1448.79 867.822 1447.46 862.125C1445.37 854.34 1454.11 850.163 1461.89 854.91Z" fill="#1D1D1D" fill-opacity="0.18"/>
<path d="M1476.31 870.427C1475.17 873.085 1474.6 873.275 1473.27 871.186C1472.51 869.667 1470.42 869.097 1468.71 869.667C1461.12 872.705 1462.83 884.478 1471.37 888.086C1478.59 891.124 1483.53 887.896 1481.82 881.06C1481.06 878.022 1481.63 876.313 1483.72 875.553C1486.37 874.414 1486.37 874.034 1483.53 870.806C1479.54 866.249 1477.83 866.249 1476.31 870.427ZM1471.37 872.895C1471.37 875.553 1476.69 875.174 1477.64 872.325C1478.02 871.186 1479.16 870.616 1479.92 871.376C1480.87 872.325 1480.11 874.414 1478.21 876.503C1475.36 879.731 1475.36 880.111 1478.02 881.25C1482.39 882.769 1479.73 886.187 1474.03 886.187C1468.9 886.187 1464.35 878.971 1466.25 874.034C1467.58 870.616 1471.37 869.857 1471.37 872.895Z" fill="#1D1D1D" fill-opacity="0.18"/>
<path d="M1439.09 877.649C1435.86 886.004 1441.18 892.08 1447.64 887.333C1451.62 884.485 1450.1 877.649 1444.6 874.801C1441.56 873.092 1440.61 873.471 1439.09 877.649ZM1446.31 883.156C1446.88 885.434 1446.12 886.384 1444.41 885.814C1443.08 885.244 1441.56 883.345 1441.37 881.636C1440.8 879.358 1441.56 878.408 1443.27 878.978C1444.6 879.548 1446.12 881.447 1446.31 883.156Z" fill="#1D1D1D" fill-opacity="0.18"/>
<path d="M41.4625 1.24162C25.7268 3.67912 13.3156 8.99731 10.4344 14.5371C9.10465 16.9746 3.12066 21.4064 -2.86332 24.5087C-15.9394 31.1564 -18.8206 35.3666 -27.6858 59.2984C-31.2319 69.4916 -36.3293 83.2303 -38.7673 89.878C-47.6324 114.031 -38.1024 141.065 -12.1718 165.662C0.682743 177.628 6.22347 181.173 24.8403 188.486C48.7763 197.793 66.0634 199.565 85.1235 194.247C96.2049 191.145 126.346 168.986 139.866 153.918L149.618 143.06L151.169 120.458C154.272 75.9178 153.829 69.9348 146.736 56.8609C136.541 38.2473 119.698 23.1791 96.4266 11.6564C73.8204 0.576859 61.6308 -1.86064 41.4625 1.24162ZM88.0046 19.6337C104.184 25.395 122.357 43.7871 132.552 64.395C139.423 78.5769 140.088 81.4575 140.088 100.071C140.088 119.793 139.866 120.901 132.774 129.986C128.784 135.304 123.465 144.168 121.027 149.708C118.589 155.247 115.93 161.23 114.822 163.003C112.162 168.321 98.1996 174.304 83.5721 176.298C76.2583 177.406 65.8417 179.844 60.5226 181.838C51.8791 185.162 49.8844 185.162 38.3597 182.281C21.7375 177.85 15.9752 173.861 7.77488 160.565C4.00718 154.361 -2.6417 147.048 -7.29591 144.168C-20.372 135.969 -26.1344 122.009 -26.1344 97.6337C-26.1344 73.4803 -24.8046 70.5996 -1.53355 45.3382C19.078 22.7359 24.3971 18.9689 36.1434 18.9689C41.2409 18.9689 48.7763 17.4178 52.7656 15.645C61.4091 12.0996 69.8311 12.9859 88.0046 19.6337Z" fill="#1D1D1D" fill-opacity="0.18"/>
<path d="M52.102 27.1669C48.7775 29.3828 45.4531 32.4851 44.7882 34.0362C43.2368 38.0249 47.6694 43.3431 52.3236 43.3431C55.4264 43.1215 55.4264 42.8999 52.102 40.9056C46.5613 37.8033 47.2261 33.3715 53.4318 29.3828C59.6374 25.3942 64.5132 27.8317 66.5079 36.0306C67.8377 41.5703 62.9618 46.6669 58.7509 44.2294C56.3129 42.8999 56.3129 43.3431 58.7509 45.7806C60.9671 47.9965 62.5186 48.2181 65.3997 46.2237C71.827 42.0135 68.0593 23.1783 60.5239 23.3999C59.1941 23.3999 55.4264 25.1726 52.102 27.1669Z" fill="#1D1D1D" fill-opacity="0.18"/>
<path d="M79.3532 32.4978C74.0341 34.7137 74.0341 34.7137 86.8886 47.7876C94.2024 55.1001 100.851 61.083 101.738 61.083C102.624 61.083 103.511 56.8728 103.511 51.5546C103.511 42.4694 97.7484 32.2762 92.4293 32.2762C91.5428 32.2762 89.3265 31.833 87.5535 31.3898C86.0021 30.7251 82.2344 31.3898 79.3532 32.4978Z" fill="#1D1D1D" fill-opacity="0.18"/>
<path d="M20.6335 41.3553C15.9792 44.9007 14.8711 47.7814 14.8711 55.5371C14.8711 61.2985 16.2009 65.9519 18.1955 67.7246C20.1902 69.2757 21.9632 70.1621 22.4065 69.7189C24.4011 67.503 37.034 40.9121 37.034 38.9178C37.034 35.1507 26.8391 36.4803 20.6335 41.3553ZM22.6281 58.861C23.293 59.9689 22.8497 61.0769 21.7416 61.0769C20.4118 61.0769 19.3037 59.9689 19.3037 58.861C19.3037 57.5314 19.7469 56.6451 20.1902 56.6451C20.8551 56.6451 21.9632 57.5314 22.6281 58.861Z" fill="#1D1D1D" fill-opacity="0.18"/>
<path d="M41.6811 55.3105C39.9084 57.5264 39.9084 58.856 42.1243 60.6287C45.8913 63.731 51.4311 60.1855 49.6584 55.7537C47.8857 51.3219 45.005 51.3219 41.6811 55.3105ZM48.1073 57.5264C48.1073 58.1912 47.2209 59.2992 45.8913 59.9639C44.7834 60.6287 43.6754 60.1855 43.6754 59.0776C43.6754 57.748 44.7834 56.6401 45.8913 56.6401C47.2209 56.6401 48.1073 57.0833 48.1073 57.5264Z" fill="#1D1D1D" fill-opacity="0.18"/>
<path d="M69.603 53.7626C68.7166 54.4274 68.0518 57.308 68.2734 59.7455C68.2734 64.1774 68.495 63.9558 70.4893 59.0808C71.8189 55.7569 73.5916 54.4274 76.0291 55.3137C77.8018 55.9785 78.6882 55.7569 78.0234 54.4274C76.4723 51.9899 71.8189 51.5467 69.603 53.7626Z" fill="#1D1D1D" fill-opacity="0.18"/>
<path d="M-5.96456 61.7301C-13.5 67.7131 -12.6134 70.5937 -1.31035 75.9119C6.22504 79.4574 6.6683 79.4574 9.32785 75.6903C13.5388 69.929 9.10622 56.6335 2.9006 56.6335C1.57083 56.6335 -2.4185 59.071 -5.96456 61.7301ZM7.77644 65.4972C10.6576 73.2528 8.44133 75.2472 -0.645465 73.2528C-9.51063 71.2585 -10.6188 68.821 -4.63479 63.5028C2.01409 57.0767 5.11689 57.7415 7.77644 65.4972Z" fill="#1D1D1D" fill-opacity="0.18"/>
<path d="M83.3454 59.7401C86.0045 62.8424 85.7829 64.1719 81.3511 68.8254C75.1466 75.2515 77.3625 76.3594 83.7886 70.1549C88.8852 65.5015 88.6636 58.6322 83.567 57.081C80.6863 55.9731 80.6863 56.4163 83.3454 59.7401Z" fill="#1D1D1D" fill-opacity="0.18"/>
<path d="M107.513 63.5185C100.42 68.6151 99.3122 76.1492 105.296 77.9219C107.291 78.5867 110.837 80.1378 113.053 81.2458C115.27 82.5753 119.037 82.7969 121.697 81.9106C125.686 80.8026 125.908 79.4731 124.8 71.4958C123.913 66.6208 122.805 61.7458 122.14 60.6378C120.145 57.5356 113.718 58.8651 107.513 63.5185ZM118.372 62.8537C122.583 65.5128 124.135 75.4844 120.81 78.1435C117.486 80.8026 103.523 75.9276 103.523 71.939C103.523 69.7231 112.167 61.3026 114.605 61.081C115.27 61.081 116.821 61.9674 118.372 62.8537Z" fill="#1D1D1D" fill-opacity="0.18"/>
<path d="M68.0586 68.1516C68.0586 70.1459 69.1665 72.5834 70.4961 73.2482C74.2631 75.6857 74.4847 73.6914 71.1609 69.038C68.5018 65.2709 68.0586 65.2709 68.0586 68.1516Z" fill="#1D1D1D" fill-opacity="0.18"/>
<path d="M33.2601 69.2798C31.4871 69.9446 30.3789 74.1548 30.3789 79.9162C30.3789 85.6775 31.4871 89.8877 33.2601 90.5525C37.2494 92.1037 48.1092 85.0127 48.1092 80.8025C48.1092 75.2627 38.1359 67.5071 33.2601 69.2798ZM41.682 74.3764C43.8983 75.7059 45.8929 78.1434 45.8929 79.9162C45.8929 83.0184 39.4657 87.6718 35.0331 87.6718C33.7033 87.6718 32.5952 84.1264 32.5952 79.9162C32.5952 71.7173 34.5899 70.6093 41.682 74.3764Z" fill="#1D1D1D" fill-opacity="0.18"/>
<path d="M85.7969 78.7996C85.7969 81.6803 87.348 83.2314 90.2287 83.2314C93.1094 83.2314 94.6605 81.6803 94.6605 78.7996C94.6605 75.9189 93.1094 74.3678 90.2287 74.3678C87.348 74.3678 85.7969 75.9189 85.7969 78.7996ZM92.4446 78.7996C92.4446 79.9076 91.5582 81.0155 90.2287 81.0155C89.1207 81.0155 88.0128 79.9076 88.0128 78.7996C88.0128 77.4701 89.1207 76.5837 90.2287 76.5837C91.5582 76.5837 92.4446 77.4701 92.4446 78.7996Z" fill="#1D1D1D" fill-opacity="0.18"/>
<path d="M-5.29933 83.6732C-5.29933 86.5539 -5.96422 95.4175 -7.07236 103.616C-7.95888 112.037 -7.73725 118.685 -6.85073 118.685C-2.41815 118.685 5.78213 111.372 8.22005 105.389C11.5445 97.1903 8.22005 87.4403 0.2414 82.1221C-4.85607 78.7982 -5.0777 79.0198 -5.29933 83.6732ZM3.78747 104.06C3.78747 104.503 2.01443 106.275 0.0197711 107.827C-3.5263 110.707 -3.74793 110.486 -0.866746 106.94C2.01443 103.395 3.78747 102.287 3.78747 104.06Z" fill="#1D1D1D" fill-opacity="0.18"/>
<path d="M60.299 94.9743C60.9638 103.838 62.5152 114.253 63.1801 118.463L64.7315 125.997L71.1588 120.679C80.4672 112.702 81.797 97.6334 73.8183 88.3266C70.7155 84.5596 66.0613 81.0141 63.4018 80.3493C58.7475 79.0198 58.7475 79.463 60.299 94.9743ZM70.9372 110.929C70.2723 112.923 69.1641 114.031 68.7209 113.366C68.056 112.702 68.2776 111.372 69.1641 110.043C71.1588 106.497 72.4886 107.162 70.9372 110.929Z" fill="#1D1D1D" fill-opacity="0.18"/>
<path d="M14.1954 82.5752C11.0931 85.4559 12.8658 89.8877 17.076 89.8877C19.9567 89.8877 21.5079 88.3366 21.5079 85.4559C21.5079 81.2457 17.076 79.4729 14.1954 82.5752ZM19.2919 85.4559C19.2919 86.5638 18.4056 87.6718 17.076 87.6718C15.9681 87.6718 14.8601 86.5638 14.8601 85.4559C14.8601 84.1263 15.9681 83.24 17.076 83.24C18.4056 83.24 19.2919 84.1263 19.2919 85.4559Z" fill="#1D1D1D" fill-opacity="0.18"/>
<path d="M97.5399 93.4314C94.4371 96.5337 92.4424 99.4143 92.8857 100.079C93.5506 100.522 102.194 101.852 111.946 102.738C131.892 104.733 133.444 103.625 125.465 93.4314C119.038 85.4541 105.74 85.2325 97.5399 93.4314Z" fill="#1D1D1D" fill-opacity="0.18"/>
<path d="M46.7817 98.9609C44.7874 102.285 49.2192 106.273 53.4294 104.722C55.4237 103.836 56.3101 101.842 55.6453 99.8472C54.0942 96.0802 48.9976 95.4154 46.7817 98.9609ZM52.543 100.955C52.543 102.063 51.4351 103.171 50.1055 103.171C48.9976 103.171 48.5544 102.063 49.2192 100.955C49.884 99.6256 50.9919 98.7393 51.6567 98.7393C52.0999 98.7393 52.543 99.6256 52.543 100.955Z" fill="#1D1D1D" fill-opacity="0.18"/>
<path d="M22.183 102.52C16.199 106.509 15.7557 110.498 20.8532 114.486C24.1776 117.367 24.1776 117.145 21.2965 112.714C18.6369 108.282 18.8585 107.395 22.6262 104.515C29.4967 99.1966 34.1509 100.305 35.4807 106.952C37.0321 114.93 35.4807 117.145 29.7184 115.594C26.6156 114.93 25.9507 115.151 27.5021 116.702C30.8265 120.026 37.9186 118.253 38.8052 114.043C39.9133 108.06 35.2591 98.7534 31.0481 98.975C28.8318 98.975 24.8425 100.526 22.183 102.52Z" fill="#1D1D1D" fill-opacity="0.18"/>
<path d="M85.1288 110.712C83.356 114.922 88.4526 118.91 92.2197 116.473C95.9867 114.257 93.7708 107.609 89.339 107.609C87.7879 107.609 85.7935 108.939 85.1288 110.712ZM91.3333 112.041C91.9981 113.149 91.5549 114.257 90.4469 114.257C89.1174 114.257 88.0094 113.149 88.0094 112.041C88.0094 110.712 88.4526 109.825 88.8958 109.825C89.5606 109.825 90.6685 110.712 91.3333 112.041Z" fill="#1D1D1D" fill-opacity="0.18"/>
<path d="M106.618 115.149C104.846 122.683 106.397 128.666 110.164 128.888C112.158 128.888 112.38 128.666 110.829 128.223C107.283 126.893 107.062 116.035 110.607 112.49C112.601 110.496 112.601 109.831 110.607 109.831C109.277 109.831 107.505 112.268 106.618 115.149Z" fill="#1D1D1D" fill-opacity="0.18"/>
<path d="M115.709 112.047C116.373 113.155 118.589 114.263 120.362 114.263C124.129 114.263 124.572 122.24 120.805 123.791C118.589 124.678 118.589 125.121 120.584 125.121C122.135 125.342 124.351 123.348 125.68 121.132C127.453 117.587 127.01 116.036 123.021 113.377C117.481 109.388 113.714 108.723 115.709 112.047Z" fill="#1D1D1D" fill-opacity="0.18"/>
<path d="M3.78906 127.768C3.78906 133.529 11.1028 144.609 16.8652 148.154C27.725 154.58 41.2444 152.365 50.1096 142.836C56.0936 136.41 54.5421 134.637 41.9093 133.086C36.1469 132.2 28.6115 130.87 24.8438 129.762C11.5461 126.217 3.78906 125.33 3.78906 127.768ZM18.8598 139.734C18.195 140.399 16.8652 139.291 16.2003 137.075C14.8705 133.973 15.0922 133.751 17.3084 135.745C18.8598 137.296 19.5247 139.069 18.8598 139.734Z" fill="#1D1D1D" fill-opacity="0.18"/>
<path d="M-9.28666 130.65C-11.281 132.866 -11.0594 134.195 -8.40029 136.411C-4.19007 139.957 0.684933 136.19 -1.30939 131.093C-3.08211 126.661 -5.96279 126.661 -9.28666 130.65ZM-3.96848 131.979C-3.3037 133.087 -3.74688 134.195 -4.85484 134.195C-6.18438 134.195 -7.29234 133.087 -7.29234 131.979C-7.29234 130.65 -6.84916 129.764 -6.40598 129.764C-5.7412 129.764 -4.63325 130.65 -3.96848 131.979Z" fill="#1D1D1D" fill-opacity="0.18"/>
<path d="M91.5454 129.773C88.8859 137.75 81.5721 163.898 82.0154 164.341C82.237 164.341 85.7831 163.676 89.5508 162.568C97.0862 160.574 103.513 151.71 103.513 143.29C103.513 137.085 93.0968 125.341 91.5454 129.773ZM93.5401 154.148C92.8752 155.256 90.8806 156.364 89.5508 156.364C87.9994 156.364 88.221 155.477 90.2157 154.148C94.4266 151.489 95.3131 151.489 93.5401 154.148Z" fill="#1D1D1D" fill-opacity="0.18"/>
<path d="M68.5 135.749C69.6079 141.511 76.9204 142.175 76.9204 136.636C76.9204 133.312 75.5909 131.982 72.267 131.982C69.1647 131.982 68.0568 133.09 68.5 135.749ZM74.7045 136.414C74.7045 137.522 73.8181 138.63 72.4886 138.63C71.3806 138.63 70.2727 137.522 70.2727 136.414C70.2727 135.084 71.3806 134.198 72.4886 134.198C73.8181 134.198 74.7045 135.084 74.7045 136.414Z" fill="#1D1D1D" fill-opacity="0.18"/>
<path d="M49.6659 155.924C44.79 167.003 45.0116 168.998 50.3307 171.878C53.4336 173.651 56.0931 173.651 59.1959 171.878C65.4015 168.555 64.7366 167.003 57.8661 168.776C50.5524 170.771 47.8928 166.782 50.9956 158.361C54.0984 150.163 58.3094 148.833 64.7366 153.708C70.7206 157.918 71.6071 162.793 67.6178 167.225C65.1799 169.441 65.6232 169.884 69.1692 169.219C76.2614 168.111 76.0397 159.469 68.726 153.043C59.6392 145.066 54.0984 145.952 49.6659 155.924Z" fill="#1D1D1D" fill-opacity="0.18"/>
<path d="M28.3872 163.001C24.6201 165.217 26.8361 171.864 31.2679 171.864C32.819 171.864 34.8133 170.535 35.4781 168.762C37.2508 164.552 32.1542 160.563 28.3872 163.001ZM32.5974 167.432C32.5974 168.54 32.1542 169.648 31.7111 169.648C31.0463 169.648 29.9383 168.54 29.2736 167.432C28.6088 166.103 29.052 165.217 30.1599 165.217C31.4895 165.217 32.5974 166.103 32.5974 167.432Z" fill="#1D1D1D" fill-opacity="0.18"/>
</svg>
