<svg width="20" height="21" viewBox="0 0 20 21" fill="none" xmlns="http://www.w3.org/2000/svg">
<path d="M17.5 7.84857H16.4375L12.375 2.06732C12.0937 1.59857 11.4062 1.44232 10.875 1.72357C10.5937 1.84857 10.4063 2.09857 10.3125 2.37982C10.25 2.62982 10.2813 2.87982 10.4375 3.12982L13.9688 7.84857H6L9.53125 3.09857C9.6875 2.84857 9.71875 2.59857 9.65625 2.34857C9.59375 2.06732 9.40625 1.84857 9.125 1.72357C8.59375 1.47357 7.9375 1.62982 7.65625 2.06732L3.59375 7.84857H2.5C1.96875 7.84857 1.5625 8.25482 1.5625 8.78607V10.0361C1.5625 10.5673 1.96875 10.9736 2.5 10.9736H2.5625C2.5 11.1298 2.5 11.2861 2.5 11.4423L3.5625 17.6923C3.625 18.1611 4.03125 18.4736 4.5 18.4736H15.5C15.9687 18.4736 16.3437 18.1298 16.4375 17.6923L17.5 11.4423C17.5313 11.2861 17.5 11.1298 17.4688 10.9736H17.5C18.0313 10.9736 18.4375 10.5673 18.4375 10.0361V8.78607C18.4375 8.25482 18.0313 7.84857 17.5 7.84857ZM10.9375 2.53607C10.9688 2.44232 11.0313 2.34857 11.1563 2.28607C11.25 2.25482 11.3437 2.22357 11.4375 2.22357C11.5937 2.22357 11.7813 2.28607 11.8438 2.41107L15.625 7.81732H14.7187L10.9687 2.72357C10.9375 2.66107 10.9375 2.59857 10.9375 2.53607ZM8.1875 2.41107C8.3125 2.22357 8.625 2.16107 8.84375 2.25482C8.9375 2.31732 9.03125 2.37982 9.0625 2.47357C9.09375 2.53607 9.0625 2.62982 9.03125 2.69232L5.21875 7.84857H4.34375L8.1875 2.41107ZM16.8125 11.0986C16.875 11.1611 16.9063 11.2548 16.875 11.3486L15.8125 17.5986C15.7812 17.7548 15.6562 17.8486 15.5 17.8486H4.5C4.34375 17.8486 4.21875 17.7236 4.1875 17.5986L3.125 11.3486C3.125 11.2548 3.125 11.1611 3.1875 11.0986C3.25 11.0361 3.34375 10.9736 3.4375 10.9736H16.5625C16.6563 10.9736 16.75 11.0048 16.8125 11.0986ZM17.8125 10.0361C17.8125 10.2236 17.6875 10.3486 17.5 10.3486H16.5625H3.4375H2.5C2.3125 10.3486 2.1875 10.2236 2.1875 10.0361V8.78607C2.1875 8.59857 2.3125 8.47357 2.5 8.47357H3.75H5.375H14.5625H17.5C17.6875 8.47357 17.8125 8.59857 17.8125 8.78607V10.0361Z" fill="#F2F2F2"/>
<path d="M9.96875 16.9116H10.0625C10.5625 16.9116 10.9688 16.5054 10.9688 16.0054V12.8179C10.9688 12.3179 10.5625 11.9116 10.0625 11.9116H9.96875C9.46875 11.9116 9.0625 12.3179 9.0625 12.8179V16.0366C9.0625 16.5054 9.46875 16.9116 9.96875 16.9116ZM9.6875 12.8179C9.6875 12.6616 9.8125 12.5366 9.96875 12.5366H10.0625C10.2188 12.5366 10.3437 12.6616 10.3437 12.8179V16.0366C10.3437 16.1929 10.2188 16.3179 10.0625 16.3179H9.96875C9.8125 16.3179 9.6875 16.1929 9.6875 16.0366V12.8179V12.8179ZM6.84375 16.9116H6.9375C7.4375 16.9116 7.84375 16.5054 7.84375 16.0054V12.8179C7.84375 12.3179 7.4375 11.9116 6.9375 11.9116H6.84375C6.34375 11.9116 5.9375 12.3179 5.9375 12.8179V16.0366C5.9375 16.5054 6.34375 16.9116 6.84375 16.9116ZM6.5625 12.8179C6.5625 12.6616 6.6875 12.5366 6.84375 12.5366H6.9375C7.09375 12.5366 7.21875 12.6616 7.21875 12.8179V16.0366C7.21875 16.1929 7.09375 16.3179 6.9375 16.3179H6.84375C6.6875 16.3179 6.5625 16.1929 6.5625 16.0366V12.8179ZM13.0938 16.9116H13.1875C13.6875 16.9116 14.0938 16.5054 14.0938 16.0054V12.8179C14.0938 12.3179 13.6875 11.9116 13.1875 11.9116H13.0938C12.5938 11.9116 12.1875 12.3179 12.1875 12.8179V16.0366C12.1875 16.5054 12.5938 16.9116 13.0938 16.9116ZM12.8125 12.8179C12.8125 12.6616 12.9375 12.5366 13.0938 12.5366H13.1875C13.3438 12.5366 13.4688 12.6616 13.4688 12.8179V16.0366C13.4688 16.1929 13.3438 16.3179 13.1875 16.3179H13.0938C12.9375 16.3179 12.8125 16.1929 12.8125 16.0366V12.8179Z" fill="#F2F2F2"/>
</svg>
