<svg width="60" height="60" viewBox="0 0 60 60" fill="none" xmlns="http://www.w3.org/2000/svg">
<path opacity="0.15" d="M29.75 54.5C39.0698 54.5 46.625 53.6605 46.625 52.625C46.625 51.5895 39.0698 50.75 29.75 50.75C20.4302 50.75 12.875 51.5895 12.875 52.625C12.875 53.6605 20.4302 54.5 29.75 54.5Z" fill="#45413C"/>
<path d="M50.5 24.75L50.875 26.5C50.875 26.5 37.25 31.375 30.625 32.75C23.125 34.375 11.125 35.375 7.25 36C5.25 36.25 3.25 35.25 2.375 33.5L1.625 32.5L50.125 23L50.5 24.75Z" fill="#DEBB7E" stroke="#45413C" stroke-miterlimit="10" stroke-linecap="round" stroke-linejoin="round"/>
<path d="M50.5023 24.7485L49.8773 21.7485C49.0023 17.1235 38.6273 11.6235 26.1273 12.8735C26.1273 12.8735 23.7523 8.62349 27.3773 7.12349C31.0023 5.62349 57.2523 0.623489 58.2523 20.6235C58.3773 22.1235 57.2523 23.4985 55.7523 23.7485L50.5023 24.7485Z" fill="#F0D5A8"/>
<path d="M27.5035 7.12431C25.1285 8.12431 25.2535 10.2493 25.7535 11.6243C26.1285 11.2493 26.5035 10.8743 27.2535 10.6243C30.7535 9.24931 55.6285 4.49931 58.0035 22.4993C58.3785 21.9993 58.5035 21.3743 58.5035 20.7493C57.3785 0.624311 31.1285 5.62431 27.5035 7.12431Z" fill="#F7E5C6"/>
<path d="M50.5039 24.7466L55.8789 23.7466C57.3789 23.4966 58.5039 22.1216 58.3789 20.6216C58.2539 18.7466 58.0039 17.1216 57.5039 15.6216C56.5039 15.2466 55.3789 15.2466 54.2539 15.3716C51.3789 15.8716 49.2539 18.2466 49.7539 20.4966L49.6289 20.6216C49.7539 20.9966 49.8789 21.2466 50.0039 21.6216L50.5039 24.7466Z" fill="#DEBB7E"/>
<path d="M50.5023 24.7485L49.8773 21.7485C49.0023 17.1235 38.6273 11.6235 26.1273 12.8735C26.1273 12.8735 23.7523 8.62349 27.3773 7.12349C31.0023 5.62349 57.2523 0.623489 58.2523 20.6235C58.3773 22.1235 57.2523 23.4985 55.7523 23.7485L50.5023 24.7485Z" stroke="#45413C" stroke-miterlimit="10" stroke-linecap="round" stroke-linejoin="round"/>
<path d="M57.3778 15.6216C56.3778 15.2466 55.2528 15.2466 54.1278 15.3716C51.2528 15.8716 49.1278 18.2466 49.6278 20.4966" stroke="#45413C" stroke-miterlimit="10" stroke-linecap="round" stroke-linejoin="round"/>
<path d="M49.625 20.25L49.875 21.75" stroke="#45413C" stroke-miterlimit="10" stroke-linecap="round" stroke-linejoin="round"/>
<path d="M26.2506 12.8755L2.1256 30.3755C1.6256 30.7505 1.3756 31.3755 1.5006 31.8755L1.6256 32.5005L2.2506 35.5005C2.3756 36.3755 3.2506 36.8755 4.0006 36.7505C4.8756 36.6255 5.3756 35.7505 5.2506 35.0005L5.0006 33.5005L9.5006 32.5005L9.8756 34.7505C10.1256 36.0005 11.3756 36.8755 12.6256 36.6255C13.8756 36.3755 14.7506 35.1255 14.5006 33.8755L14.1256 31.6255L35.3756 27.6255L35.6256 29.1255C35.7506 30.0005 36.6256 30.5005 37.3756 30.3755C38.2506 30.2505 38.7506 29.3755 38.6256 28.6255L38.3756 27.1255L46.0006 25.7505L46.3756 28.0005C46.6256 29.2505 47.8756 30.1255 49.1256 29.8755C50.3756 29.6255 51.2506 28.3755 51.0006 27.1255L50.0006 21.7505C49.0006 17.1255 38.6256 11.6255 26.2506 12.8755Z" fill="#FFE500"/>
<path d="M45.875 25.6255L46.25 27.8755C46.5 29.1255 47.75 30.0005 49 29.7505C50.25 29.5005 51.125 28.2505 50.875 27.0005L49.875 21.6255C49 17.0005 38.625 11.5005 26.125 12.7505L24.75 13.7505C35 14.1255 43 18.7505 43.75 22.7505L44.375 25.7505L45.875 25.6255Z" fill="#EBCB00"/>
<path d="M8.125 29.625L46.125 22.5" stroke="#EBCB00" stroke-miterlimit="10" stroke-linecap="round" stroke-linejoin="round"/>
<path d="M38.375 27.125L38 25.5" stroke="#45413C" stroke-miterlimit="10" stroke-linecap="round" stroke-linejoin="round"/>
<path d="M45.875 25.625L45.375 22.625" stroke="#45413C" stroke-miterlimit="10" stroke-linecap="round" stroke-linejoin="round"/>
<path d="M26.2506 12.8755L2.1256 30.3755C1.6256 30.7505 1.3756 31.3755 1.5006 31.8755L1.6256 32.5005L2.2506 35.5005C2.3756 36.3755 3.2506 36.8755 4.0006 36.7505C4.8756 36.6255 5.3756 35.7505 5.2506 35.0005L5.0006 33.5005L9.5006 32.5005L9.8756 34.7505C10.1256 36.0005 11.3756 36.8755 12.6256 36.6255C13.8756 36.3755 14.7506 35.1255 14.5006 33.8755L14.1256 31.6255L35.3756 27.6255L35.6256 29.1255C35.7506 30.0005 36.6256 30.5005 37.3756 30.3755C38.2506 30.2505 38.7506 29.3755 38.6256 28.6255L38.3756 27.1255L46.0006 25.7505L46.3756 28.0005C46.6256 29.2505 47.8756 30.1255 49.1256 29.8755C50.3756 29.6255 51.2506 28.3755 51.0006 27.1255L50.0006 21.7505C49.0006 17.1255 38.6256 11.6255 26.2506 12.8755V12.8755Z" stroke="#45413C" stroke-miterlimit="10" stroke-linecap="round" stroke-linejoin="round"/>
<path d="M9.5 32.5L9.125 31" stroke="#45413C" stroke-miterlimit="10" stroke-linecap="round" stroke-linejoin="round"/>
<path d="M22.875 20.5C25.75 20 27.875 18.125 27.625 16.5C27.375 15.25 26 14.5 24.125 14.375L17.375 19.25C18.25 20.5 20.5 21 22.875 20.5Z" fill="#FF6242" stroke="#45413C" stroke-miterlimit="10" stroke-linecap="round" stroke-linejoin="round"/>
<path d="M43.1255 23.0006C43.5005 22.5006 43.6255 21.8756 43.6255 21.3756C43.2505 19.7506 40.6255 18.7506 37.7505 19.3756C34.8755 19.8756 32.7504 21.7506 33.0004 23.3756C33.1254 23.8756 33.5005 24.3756 34.0005 24.7506L43.1255 23.0006Z" fill="#FF6242" stroke="#45413C" stroke-miterlimit="10" stroke-linecap="round" stroke-linejoin="round"/>
<path d="M12.75 28.75C13.125 28.25 13.25 27.625 13.25 27.125C13 25.875 11.5 25.125 9.625 25L2.875 29.875C3 30.125 3.25 30.375 3.625 30.5L12.75 28.75Z" fill="#FF6242" stroke="#45413C" stroke-miterlimit="10" stroke-linecap="round" stroke-linejoin="round"/>
<path d="M30 25.4996C29.125 23.8746 26.375 22.9996 23.5 23.6246C20.625 24.2496 18.375 25.9996 18.125 27.7496L30 25.4996Z" fill="#FF6242" stroke="#45413C" stroke-miterlimit="10" stroke-linecap="round" stroke-linejoin="round"/>
</svg>
