<svg width="18" height="18" viewBox="0 0 18 18" fill="none" xmlns="http://www.w3.org/2000/svg">
<path d="M16.5 4.35358C15.9363 4.59815 15.3401 4.75982 14.73 4.83358C15.3736 4.44907 15.856 3.84416 16.0875 3.13108C15.4827 3.49112 14.8206 3.7448 14.13 3.88108C13.6684 3.3805 13.0537 3.0473 12.3824 2.93371C11.711 2.82013 11.0209 2.93259 10.4203 3.25347C9.81978 3.57434 9.3427 4.08547 9.06393 4.7067C8.78516 5.32793 8.72047 6.02412 8.88 6.68608C7.65707 6.62422 6.46083 6.30579 5.36899 5.75147C4.27715 5.19715 3.31413 4.41935 2.5425 3.46858C2.27185 3.9412 2.12964 4.47644 2.13 5.02108C2.12904 5.52686 2.25316 6.02504 2.49132 6.47125C2.72947 6.91746 3.07426 7.29786 3.495 7.57858C3.00598 7.56527 2.52741 7.43405 2.1 7.19608V7.23358C2.10367 7.94224 2.352 8.62789 2.80299 9.17455C3.25398 9.7212 3.87994 10.0953 4.575 10.2336C4.30744 10.315 4.02966 10.3579 3.75 10.3611C3.55642 10.3588 3.36332 10.3413 3.1725 10.3086C3.37043 10.9182 3.75347 11.4509 4.26831 11.8327C4.78315 12.2145 5.40418 12.4262 6.045 12.4386C4.9629 13.29 3.62691 13.7547 2.25 13.7586C1.9993 13.7594 1.7488 13.7444 1.5 13.7136C2.90582 14.6213 4.54411 15.1031 6.2175 15.1011C7.37227 15.1131 8.51785 14.8948 9.58734 14.4591C10.6568 14.0234 11.6288 13.379 12.4464 12.5634C13.264 11.7479 13.911 10.7776 14.3494 9.70926C14.7879 8.64089 15.009 7.49587 15 6.34108C15 6.21358 15 6.07858 15 5.94358C15.5885 5.50468 16.0961 4.96664 16.5 4.35358Z" fill="#FBB403"/>
</svg>
