<svg width="16" height="14" viewBox="0 0 16 14" fill="none" xmlns="http://www.w3.org/2000/svg">
<path d="M15.5 2.42877C14.9363 2.67334 14.3401 2.83502 13.73 2.90877C14.3736 2.52426 14.856 1.91936 15.0875 1.20627C14.4827 1.56632 13.8206 1.81999 13.13 1.95627C12.6684 1.4557 12.0537 1.12249 11.3824 1.00891C10.711 0.895325 10.0209 1.00779 9.42034 1.32866C8.81978 1.64954 8.3427 2.16067 8.06393 2.7819C7.78516 3.40313 7.72047 4.09931 7.88 4.76127C6.65707 4.69942 5.46083 4.38099 4.36899 3.82667C3.27715 3.27235 2.31413 2.49454 1.5425 1.54377C1.27185 2.0164 1.12964 2.55164 1.13 3.09627C1.12904 3.60206 1.25316 4.10023 1.49132 4.54644C1.72947 4.99265 2.07426 5.37305 2.495 5.65377C2.00598 5.64047 1.52741 5.50924 1.1 5.27127V5.30877C1.10367 6.01744 1.352 6.70309 1.80299 7.24975C2.25398 7.7964 2.87994 8.1705 3.575 8.30877C3.30744 8.3902 3.02966 8.43313 2.75 8.43627C2.55642 8.43401 2.36332 8.41645 2.1725 8.38377C2.37043 8.99338 2.75347 9.52613 3.26831 9.90789C3.78315 10.2897 4.40418 10.5014 5.045 10.5138C3.9629 11.3652 2.62691 11.8299 1.25 11.8338C0.999301 11.8346 0.748802 11.8196 0.5 11.7888C1.90582 12.6965 3.54411 13.1783 5.2175 13.1763C6.37227 13.1883 7.51785 12.97 8.58734 12.5343C9.65682 12.0986 10.6288 11.4542 11.4464 10.6386C12.264 9.8231 12.911 8.85281 13.3494 7.78445C13.7879 6.71609 14.009 5.57107 14 4.41627C14 4.28877 14 4.15377 14 4.01877C14.5885 3.57988 15.0961 3.04184 15.5 2.42877Z" fill="white"/>
</svg>
