<svg width="18" height="18" viewBox="0 0 18 18" fill="none" xmlns="http://www.w3.org/2000/svg">
<path d="M16.0754 10.6166C16.1821 10.1171 16.2353 9.60769 16.2341 9.09691C16.2288 8.16293 16.0395 7.23915 15.6769 6.37839C15.3144 5.51763 14.7857 4.73676 14.1212 4.08044C13.4567 3.42412 12.6693 2.90521 11.8041 2.55338C10.9389 2.20155 10.0128 2.02371 9.07887 2.03C8.67027 2.02895 8.26241 2.06454 7.86017 2.13634C7.23569 1.74396 6.51797 1.52502 5.78082 1.50202C5.04366 1.47902 4.31369 1.6528 3.66597 2.00549C3.01826 2.35818 2.47618 2.87704 2.0955 3.50871C1.71482 4.14037 1.50927 4.86205 1.5 5.5995C1.50047 6.32655 1.69561 7.04022 2.06515 7.66635C1.97347 8.13196 1.92609 8.6052 1.92366 9.07974C1.93149 10.0073 2.12347 10.924 2.48846 11.7767C2.85345 12.6295 3.38418 13.4012 4.04984 14.0472C4.7155 14.6931 5.50283 15.2004 6.36614 15.5396C7.22945 15.8788 8.15153 16.0432 9.07887 16.0232C9.51764 16.0264 9.9556 15.9848 10.3859 15.8988C10.9797 16.2588 11.6537 16.4654 12.3473 16.5C13.0471 16.5132 13.7384 16.346 14.3548 16.0145C14.9711 15.6829 15.4917 15.1982 15.8663 14.607C16.2409 14.0158 16.457 13.3381 16.4936 12.6392C16.5302 11.9403 16.3862 11.2437 16.0754 10.6166ZM12.3293 11.9948C12.0189 12.4109 11.5961 12.7296 11.1106 12.9134C10.5099 13.1525 9.86669 13.2666 9.22037 13.2487C8.46957 13.273 7.72401 13.1156 7.04714 12.7899C6.65122 12.579 6.31179 12.276 6.05741 11.9065C5.8316 11.5977 5.70264 11.2287 5.68691 10.8465C5.68513 10.7494 5.70481 10.653 5.74454 10.5644C5.78427 10.4757 5.84307 10.3969 5.91675 10.3336C6.07554 10.1893 6.28469 10.1132 6.49907 10.1218C6.67249 10.1146 6.8425 10.1714 6.97682 10.2813C7.12419 10.4187 7.23879 10.5876 7.31213 10.7753C7.40286 11.0106 7.52802 11.2311 7.68352 11.4297C7.82574 11.6163 8.0144 11.7624 8.23068 11.8533C8.52676 11.9781 8.84603 12.0383 9.16722 12.03C9.62157 12.0549 10.0724 11.9377 10.4571 11.6947C10.6056 11.6079 10.7292 11.4842 10.8159 11.3356C10.9026 11.187 10.9495 11.0185 10.952 10.8465C10.957 10.7249 10.936 10.6037 10.8903 10.491C10.8446 10.3783 10.7753 10.2767 10.687 10.193C10.4924 10.0087 10.2556 9.87504 9.99737 9.80356C9.71525 9.71526 9.32584 9.62691 8.84903 9.52144C8.30144 9.40561 7.76398 9.24615 7.24182 9.04459C6.84047 8.88377 6.48745 8.62204 6.21694 8.28475C5.96106 7.94451 5.82995 7.52663 5.8456 7.1012C5.84509 6.66684 5.988 6.24447 6.25214 5.89966C6.55142 5.52667 6.94925 5.24502 7.40048 5.08666C7.97326 4.88476 8.57809 4.78913 9.18521 4.80449C9.66337 4.79836 10.1398 4.86369 10.5986 4.99831C10.9556 5.10172 11.2907 5.26942 11.5874 5.49315C11.8239 5.66943 12.0223 5.89172 12.1707 6.14666C12.284 6.346 12.3448 6.5709 12.3473 6.8002C12.3476 6.89961 12.3273 6.99801 12.2878 7.08921C12.2482 7.18042 12.1902 7.26246 12.1175 7.3302C12.0449 7.40632 11.957 7.46616 11.8595 7.50578C11.7621 7.5454 11.6574 7.5639 11.5523 7.56005C11.3817 7.57014 11.2129 7.52007 11.0755 7.41855C10.9335 7.28585 10.8142 7.13087 10.7221 6.95973C10.5815 6.6794 10.3827 6.43231 10.1389 6.235C9.81212 6.03054 9.42784 5.93756 9.04372 5.97C8.64706 5.95151 8.25371 6.04993 7.91249 6.25304C7.78996 6.31894 7.68655 6.41541 7.61232 6.53307C7.53808 6.65074 7.49554 6.78561 7.48883 6.92458C7.48978 7.07725 7.53934 7.22564 7.63033 7.34824C7.73977 7.47949 7.87921 7.58244 8.03687 7.64839C8.19789 7.73624 8.37013 7.80174 8.54883 7.84308C8.72552 7.89627 9.00858 7.96659 9.41419 8.05494C9.90903 8.16127 10.3688 8.28478 10.7753 8.40824C11.1433 8.51728 11.4942 8.67782 11.8173 8.88509C12.0925 9.06593 12.3222 9.30775 12.4888 9.59178C12.659 9.91254 12.7441 10.2716 12.7358 10.6347C12.7568 11.1208 12.6136 11.5999 12.3293 11.9948Z" fill="white"/>
</svg>
