<svg width="60" height="60" viewBox="0 0 60 60" fill="none" xmlns="http://www.w3.org/2000/svg">
<path d="M59.1211 30.0017C59.1211 32.097 55.5105 33.7587 55.0641 35.7192C54.6035 37.7442 57.1242 40.8028 56.243 42.6333C55.3465 44.4895 51.3715 44.4216 50.0977 46.0165C48.8238 47.6114 49.7613 51.4704 48.1641 52.7501C46.5668 54.0298 43.0172 52.2509 41.1598 53.1462C39.3316 54.0274 38.5125 57.9145 36.4863 58.3739C34.5234 58.8204 32.1035 55.6786 30.0059 55.6786C27.9082 55.6786 25.4883 58.8157 23.5254 58.3739C21.4992 57.9145 20.6801 54.0274 18.852 53.1462C16.9945 52.2509 13.4437 54.0239 11.8477 52.7501C10.2516 51.4763 11.1832 47.6149 9.90234 46.013C8.62148 44.411 4.65352 44.4895 3.75703 42.6298C2.87578 40.8028 5.39766 37.7442 4.93594 35.7157C4.48945 33.7587 0.878906 32.097 0.878906 30.0017C0.878906 27.9063 4.48945 26.2446 4.93594 24.2841C5.39648 22.2591 2.87578 19.2005 3.75703 17.37C4.65352 15.5173 8.62852 15.5876 9.90234 13.9903C11.1762 12.3931 10.2387 8.5329 11.8418 7.25321C13.4449 5.97353 16.9922 7.75243 18.8461 6.85712C20.6742 5.97587 21.4934 2.08876 23.5195 1.62939C25.4824 1.1829 27.9023 4.3247 30 4.3247C32.0977 4.3247 34.5176 1.18759 36.4805 1.62939C38.5066 2.08876 39.3258 5.97821 41.1539 6.85712C43.0078 7.75243 46.5621 5.97821 48.1641 7.25321C49.766 8.52821 48.8227 12.3884 50.1035 13.9903C51.3844 15.5923 55.3523 15.5138 56.2488 17.3735C57.1301 19.2005 54.6082 22.2591 55.0699 24.2876C55.5105 26.2446 59.1211 27.9063 59.1211 30.0017Z" fill="white"/>
<path d="M59.1211 30.0017C59.1211 32.097 55.5105 33.7587 55.0641 35.7192C54.6035 37.7442 57.1242 40.8028 56.243 42.6333C55.3465 44.4895 51.3715 44.4216 50.0977 46.0165C48.8238 47.6114 49.7613 51.4704 48.1641 52.7501C46.5668 54.0298 43.0172 52.2509 41.1598 53.1462C39.3316 54.0274 38.5125 57.9145 36.4863 58.3739C34.5234 58.8204 32.1035 55.6786 30.0059 55.6786C27.9082 55.6786 25.4883 58.8157 23.5254 58.3739C21.4992 57.9145 20.6801 54.0274 18.852 53.1462C16.9945 52.2509 13.4437 54.0239 11.8477 52.7501C10.2516 51.4763 11.1832 47.6149 9.90234 46.013C8.62148 44.411 4.65352 44.4895 3.75703 42.6298C2.87578 40.8028 5.39766 37.7442 4.93594 35.7157C4.48945 33.7587 0.878906 32.097 0.878906 30.0017C0.878906 27.9063 4.48945 26.2446 4.93594 24.2841C5.39648 22.2591 2.87578 19.2005 3.75703 17.37C4.65352 15.5173 8.62852 15.5876 9.90234 13.9903C11.1762 12.3931 10.2387 8.5329 11.8418 7.25321C13.4449 5.97353 16.9922 7.75243 18.8461 6.85712C20.6742 5.97587 21.4934 2.08876 23.5195 1.62939C25.4824 1.1829 27.9023 4.3247 30 4.3247C32.0977 4.3247 34.5176 1.18759 36.4805 1.62939C38.5066 2.08876 39.3258 5.97821 41.1539 6.85712C43.0078 7.75243 46.5621 5.97821 48.1641 7.25321C49.766 8.52821 48.8227 12.3884 50.1035 13.9903C51.3844 15.5923 55.3523 15.5138 56.2488 17.3735C57.1301 19.2005 54.6082 22.2591 55.0699 24.2876C55.5105 26.2446 59.1211 27.9063 59.1211 30.0017Z" fill="#FED947"/>
<path d="M4.93594 22.5238C5.26055 21.0977 4.10742 19.1594 3.7043 17.5C3.15703 18.9062 4.43906 20.9852 4.86211 22.7676C4.89169 22.6879 4.91634 22.6065 4.93594 22.5238ZM55.0641 22.5238C55.0837 22.6065 55.1083 22.6879 55.1379 22.7676C55.5609 20.9852 56.843 18.9109 56.2957 17.5C55.8984 19.1594 54.7395 21.093 55.0641 22.5238ZM4.86211 35.473C4.98984 34.9328 5.04023 34.4184 4.93594 33.959C4.55391 32.2809 1.85391 30.8195 1.08516 29.1203C0.953784 29.395 0.883423 29.6948 0.878906 29.9992C0.878906 32.0066 4.19297 33.6168 4.86211 35.473ZM55.0641 33.959C54.9598 34.4195 55.0102 34.9328 55.1379 35.473C55.807 33.6168 59.1223 32.0066 59.1223 29.9992C59.1178 29.6948 59.0474 29.395 58.916 29.1203C58.1461 30.8195 55.4461 32.2809 55.0641 33.959ZM56.243 40.8695C55.3465 42.7258 51.3715 42.6578 50.0977 44.2527C48.8238 45.8477 49.7613 49.7102 48.1641 50.9898C46.5668 52.2695 43.0172 50.4906 41.1598 51.3859C39.3316 52.2672 38.5125 56.1543 36.4863 56.6137C34.5234 57.0602 32.1035 53.9184 30.0059 53.9184C27.9082 53.9184 25.4883 57.0555 23.5254 56.6137C21.4992 56.1543 20.6801 52.2672 18.852 51.3859C16.9945 50.4906 13.4438 52.2637 11.8477 50.9898C10.2516 49.716 11.1832 45.8547 9.90234 44.2527C8.62148 42.6508 4.65352 42.7293 3.75703 40.8695C3.73711 40.8273 3.7207 40.784 3.7043 40.7406C3.53438 41.4379 3.49688 42.0871 3.75703 42.6273C4.65352 44.4836 8.62852 44.4133 9.90234 46.0105C11.1762 47.6078 10.2387 51.468 11.8418 52.7477C13.4449 54.0273 16.9887 52.2484 18.8461 53.1437C20.6742 54.025 21.4934 57.9121 23.5195 58.3715C25.4824 58.818 27.9023 55.6762 30 55.6762C32.0977 55.6762 34.5176 58.8133 36.4805 58.3715C38.5066 57.9121 39.3258 54.025 41.1539 53.1437C43.0078 52.2484 46.5621 54.0227 48.1641 52.7477C49.766 51.4727 48.8227 47.6125 50.1035 46.0105C51.3844 44.4086 55.3523 44.4871 56.2488 42.6273C56.509 42.0871 56.4715 41.4379 56.3016 40.7406C56.2793 40.7805 56.2629 40.8273 56.243 40.8695Z" fill="#F8BE32"/>
<path d="M4.86211 35.473C4.98984 34.9328 5.04023 34.4184 4.93594 33.959C4.55391 32.2809 1.85391 30.8195 1.08516 29.1203C0.953784 29.395 0.883423 29.6948 0.878906 29.9992C0.878906 32.0066 4.19297 33.6168 4.86211 35.473ZM55.0641 22.5238C55.0837 22.6065 55.1083 22.6879 55.1379 22.7676C55.5609 20.9852 56.843 18.9109 56.2957 17.5C55.8984 19.1594 54.7395 21.093 55.0641 22.5238ZM4.93594 22.5238C5.26055 21.0977 4.10742 19.1594 3.7043 17.5C3.15703 18.9062 4.43906 20.9852 4.86211 22.7676C4.89169 22.6879 4.91634 22.6065 4.93594 22.5238ZM55.0641 33.959C54.9598 34.4195 55.0102 34.9328 55.1379 35.473C55.807 33.6168 59.1223 32.0066 59.1223 29.9992C59.1178 29.6948 59.0474 29.395 58.916 29.1203C58.1461 30.8195 55.4461 32.2809 55.0641 33.959ZM12.3047 53.0125C13.0852 53.3348 14.1375 53.2316 15.2156 53.0922C14.4246 52.7723 13.3734 52.873 12.3047 53.0125Z" fill="#F8BE32"/>
<path d="M30.002 53.5977C41.0919 53.5977 50.082 44.6075 50.082 33.5176C50.082 22.4277 41.0919 13.4375 30.002 13.4375C18.912 13.4375 9.92188 22.4277 9.92188 33.5176C9.92188 44.6075 18.912 53.5977 30.002 53.5977Z" fill="#F8BE32"/>
<path d="M30.002 50.082C41.0919 50.082 50.082 41.0919 50.082 30.002C50.082 18.912 41.0919 9.92188 30.002 9.92188C18.912 9.92188 9.92188 18.912 9.92188 30.002C9.92188 41.0919 18.912 50.082 30.002 50.082Z" fill="#E4222E"/>
<path d="M30.002 46.5645C24.9808 46.5641 20.142 44.6827 16.4393 41.2912C12.7367 37.8996 10.439 33.244 9.99922 28.2422C9.94883 28.8211 9.92188 29.407 9.92188 30C9.92188 35.3256 12.0374 40.433 15.8032 44.1988C19.5689 47.9645 24.6764 50.0801 30.002 50.0801C35.3275 50.0801 40.435 47.9645 44.2007 44.1988C47.9665 40.433 50.082 35.3256 50.082 30C50.082 29.407 50.0551 28.8211 50.0047 28.2422C49.5649 33.244 47.2672 37.8996 43.5646 41.2912C39.8619 44.6827 35.0231 46.5641 30.002 46.5645Z" fill="#C0232C"/>
<path d="M22.1716 38.4922C21.9979 38.492 21.8281 38.4404 21.6837 38.3438C21.5393 38.2472 21.4268 38.11 21.3603 37.9495C21.2938 37.789 21.2764 37.6124 21.3103 37.442C21.3441 37.2716 21.4277 37.1151 21.5505 36.9922L36.9934 21.5492C37.0739 21.4629 37.1709 21.3936 37.2788 21.3456C37.3866 21.2975 37.5029 21.2717 37.621 21.2696C37.739 21.2675 37.8562 21.2892 37.9656 21.3335C38.0751 21.3777 38.1745 21.4434 38.2579 21.5269C38.3414 21.6104 38.4072 21.7098 38.4514 21.8192C38.4956 21.9287 38.5173 22.0459 38.5152 22.1639C38.5132 22.2819 38.4873 22.3983 38.4393 22.5061C38.3913 22.6139 38.322 22.7109 38.2356 22.7914L22.7927 38.2344C22.7114 38.3163 22.6146 38.3813 22.508 38.4256C22.4014 38.4698 22.287 38.4925 22.1716 38.4922ZM35.1466 39.4109C34.1597 39.4103 33.2036 39.0676 32.4412 38.4411C31.6787 37.8146 31.1571 36.9431 30.9651 35.9751C30.7731 35.0071 30.9227 34.0025 31.3884 33.1324C31.8541 32.2624 32.607 31.5807 33.5189 31.2035C34.4309 30.8264 35.4453 30.7771 36.3895 31.064C37.3337 31.3509 38.1493 31.9564 38.6971 32.7772C39.245 33.598 39.4913 34.5833 39.3941 35.5654C39.2969 36.5474 38.8623 37.4654 38.1642 38.1629C37.7682 38.5595 37.2978 38.8739 36.7799 39.0881C36.2621 39.3023 35.707 39.412 35.1466 39.4109ZM35.1466 32.6363C34.5658 32.6365 34.0032 32.8381 33.5544 33.2066C33.1056 33.5752 32.7985 34.088 32.6854 34.6576C32.5723 35.2272 32.6602 35.8184 32.9341 36.3305C33.208 36.8425 33.651 37.2438 34.1876 37.4659C34.7241 37.6879 35.3211 37.7171 35.8768 37.5483C36.4325 37.3796 36.9125 37.0234 37.235 36.5405C37.5575 36.0575 37.7025 35.4777 37.6455 34.8998C37.5884 34.3219 37.3327 33.7816 36.922 33.3711C36.6891 33.1376 36.4124 32.9524 36.1077 32.8263C35.803 32.7002 35.4763 32.6356 35.1466 32.6363ZM24.8528 29.1172C23.866 29.1166 22.9099 28.7738 22.1474 28.1473C21.385 27.5208 20.8633 26.6493 20.6713 25.6813C20.4794 24.7133 20.629 23.7087 21.0946 22.8387C21.5603 21.9686 22.3133 21.2869 23.2252 20.9098C24.1371 20.5326 25.1516 20.4833 26.0958 20.7702C27.04 21.0572 27.8555 21.6626 28.4034 22.4834C28.9512 23.3042 29.1975 24.2896 29.1004 25.2716C29.0032 26.2537 28.5685 27.1716 27.8704 27.8691C27.4745 28.2657 27.004 28.5802 26.4862 28.7943C25.9683 29.0085 25.4132 29.1182 24.8528 29.1172ZM24.8528 22.3426C24.2723 22.3429 23.7099 22.5445 23.2614 22.913C22.8129 23.2815 22.506 23.7941 22.3931 24.3635C22.2802 24.9329 22.3682 25.5239 22.6422 26.0356C22.9161 26.5474 23.3591 26.9484 23.8955 27.1702C24.432 27.392 25.0287 27.4209 25.5841 27.252C26.1395 27.0832 26.6191 26.7269 26.9413 26.2441C27.2635 25.7612 27.4082 25.1816 27.3509 24.6039C27.2936 24.0263 27.0378 23.4863 26.627 23.0762C26.3941 22.8433 26.1174 22.6586 25.813 22.5327C25.5085 22.4068 25.1823 22.3422 24.8528 22.3426Z" fill="white"/>
</svg>
