<svg width="60" height="60" viewBox="0 0 60 60" fill="none" xmlns="http://www.w3.org/2000/svg">
<path d="M30.0453 13.1772V25.9331C30.0452 26.2439 29.9217 26.5419 29.702 26.7616C29.4822 26.9814 29.1842 27.1049 28.8734 27.105H14.9844C14.6736 27.1049 14.3756 26.9814 14.1559 26.7616C13.9361 26.5419 13.8126 26.2439 13.8125 25.9331V13.1772C13.8125 13.0233 13.8427 12.8709 13.9016 12.7287C13.9605 12.5865 14.0468 12.4573 14.1556 12.3485C14.2645 12.2397 14.3937 12.1534 14.5359 12.0945C14.6781 12.0356 14.8305 12.0053 14.9844 12.0054H28.8734C29.0273 12.0053 29.1797 12.0356 29.3219 12.0945C29.4641 12.1534 29.5933 12.2397 29.7022 12.3485C29.811 12.4573 29.8973 12.5865 29.9562 12.7287C30.0151 12.8709 30.0454 13.0233 30.0453 13.1772Z" fill="#FF6666"/>
<path d="M31.6522 27.0994H18.7273C17.8424 27.0994 17.125 27.8167 17.125 28.7016C17.125 29.5865 17.8424 30.3039 18.7273 30.3039H31.6522C32.5371 30.3039 33.2545 29.5865 33.2545 28.7016C33.2545 27.8167 32.5371 27.0994 31.6522 27.0994Z" fill="#4A4F60"/>
<path d="M31.6523 27.0994H28.1367C28.5617 27.0994 28.9692 27.2682 29.2697 27.5687C29.5702 27.8691 29.739 28.2767 29.739 28.7016C29.739 29.1266 29.5702 29.5341 29.2697 29.8346C28.9692 30.1351 28.5617 30.3039 28.1367 30.3039H31.6523C32.0773 30.3039 32.4848 30.1351 32.7853 29.8346C33.0858 29.5341 33.2546 29.1266 33.2546 28.7016C33.2546 28.2767 33.0858 27.8691 32.7853 27.5687C32.4848 27.2682 32.0773 27.0994 31.6523 27.0994Z" fill="#3B3F4D"/>
<path d="M26.2729 45.351C26.2729 46.8681 25.6702 48.3231 24.5974 49.3959C23.5246 50.4687 22.0696 51.0714 20.5525 51.0714C19.0353 51.0714 17.5803 50.4687 16.5075 49.3959C15.4347 48.3231 14.832 46.8681 14.832 45.351V43.6366L26.2729 43.2832V45.351Z" fill="#4A4F60"/>
<path d="M24.5173 43.3375V45.351C24.5172 46.7158 24.0292 48.0357 23.1414 49.0724C22.2536 50.109 21.0244 50.7942 19.6758 51.0041C20.4915 51.1303 21.3248 51.0786 22.1186 50.8526C22.9125 50.6265 23.648 50.2314 24.2749 49.6945C24.9017 49.1575 25.405 48.4913 25.7503 47.7416C26.0955 46.9919 26.2746 46.1764 26.2751 45.351V43.2832L24.5173 43.3375Z" fill="#3B3F4D"/>
<path d="M18.3516 45.35C18.3514 45.6395 18.4082 45.9263 18.5189 46.1939C18.6295 46.4614 18.7918 46.7046 18.9965 46.9094C19.2012 47.1142 19.4442 47.2767 19.7117 47.3876C19.9792 47.4984 20.2659 47.5555 20.5555 47.5555C20.845 47.5555 21.1317 47.4984 21.3992 47.3876C21.6667 47.2767 21.9098 47.1142 22.1144 46.9094C22.3191 46.7046 22.4814 46.4614 22.5921 46.1939C22.7027 45.9263 22.7596 45.6395 22.7594 45.35V43.813H18.3516V45.35Z" fill="white"/>
<path d="M44.3866 44.4033L10.8345 44.8397C8.87061 41.4665 11.7488 34.5892 16.6239 31.7719C19.1852 30.2917 21.8001 30.2197 23.2708 30.3068H32.2526C30.3777 33.1612 30.5731 36.8039 32.6162 39.1431C34.2646 41.0304 36.9205 41.8476 39.294 41.325C44.9839 40.072 44.6286 33.4925 43.6875 29.0478C43.6166 28.713 42.4101 24.8597 41.9053 23.3826L45.876 24.4932C46.5086 26.6086 47.1956 28.7747 47.937 30.9912C48.7324 33.3622 49.5453 35.6502 50.3757 37.8551C48.3794 40.0378 46.383 42.2206 44.3866 44.4033Z" fill="#FFE966"/>
<path d="M56.5446 41.436C57.1355 42.0554 57.5799 42.7994 57.8451 43.6134C58.1102 44.4273 58.1893 45.2904 58.0766 46.139C57.9638 46.9875 57.6621 47.8 57.1936 48.5164C56.725 49.2329 56.1017 49.8351 55.3695 50.2786C54.6374 50.7221 53.815 50.9957 52.963 51.0791C52.1111 51.1625 51.2512 51.0537 50.4469 50.7606C49.6426 50.4676 48.9143 49.9977 48.3157 49.3858C47.7171 48.7738 47.2635 48.0353 46.9883 47.2248" fill="#4A4F60"/>
<path d="M56.5438 41.436L55.3638 42.1508C55.9109 42.9477 56.2471 43.8703 56.3409 44.8323C56.4348 45.7944 56.2832 46.7645 55.9004 47.6521C55.5177 48.5397 54.9161 49.3158 54.1521 49.9078C53.388 50.4999 52.4863 50.8886 51.5312 51.0376C52.712 51.2205 53.9204 51.0289 54.9867 50.4899C56.053 49.9509 56.9238 49.0915 57.4768 48.0323C58.0297 46.9731 58.2371 45.7674 58.0697 44.5843C57.9024 43.4013 57.3688 42.3003 56.5438 41.436Z" fill="#3B3F4D"/>
<path d="M53.4644 43.4541C53.8046 43.6401 54.0897 43.9125 54.291 44.2438C54.4923 44.5752 54.6026 44.9537 54.6108 45.3414C54.6191 45.729 54.5249 46.1119 54.3379 46.4515C54.1509 46.7911 53.8776 47.0754 53.5456 47.2756C53.2137 47.4759 52.8347 47.585 52.4471 47.5921C52.0595 47.5991 51.6768 47.5038 51.3378 47.3157C50.9988 47.1276 50.7154 46.8535 50.5162 46.5209C50.3169 46.1883 50.209 45.809 50.2031 45.4214C50.2213 44.9828 50.3625 44.5581 50.6105 44.1959C50.8585 43.8337 51.2034 43.5485 51.6057 43.3729C52.503 43.0046 53.3268 43.3874 53.4644 43.4541Z" fill="white"/>
<path d="M10.8359 44.8399C12.1813 38.6097 17.9967 35.095 22.7264 36.3068C26.1534 37.1848 28.8576 40.5051 29.4885 44.5996L10.8359 44.8399Z" fill="#FFE236"/>
<path d="M47.9389 38.3944L48.2874 38.187C49.8894 37.2337 51.8045 36.9558 53.6114 37.4146C55.4183 37.8733 56.9689 39.031 57.9222 40.633L57.9222 40.633L45.4928 48.0292L45.4928 48.0292C44.5395 46.4272 44.2617 44.5121 44.7204 42.7052C45.1791 40.8983 46.3369 39.3477 47.9389 38.3944L47.9389 38.3944Z" fill="#FFE236"/>
<path d="M30.0473 13.1772V23.498C28.7027 23.463 27.3874 23.0979 26.2172 22.4348C25.047 21.7718 24.0578 20.8311 23.3368 19.6957C22.6157 18.5603 22.185 17.2651 22.0825 15.924C21.9799 14.5829 22.2088 13.2372 22.7488 12.0054H28.8754C29.0293 12.0053 29.1817 12.0356 29.3239 12.0945C29.4661 12.1534 29.5953 12.2397 29.7041 12.3485C29.813 12.4573 29.8993 12.5865 29.9581 12.7287C30.017 12.8709 30.0473 13.0233 30.0473 13.1772Z" fill="#FF4E4E"/>
<path d="M30.2617 21.7411C33.8214 21.7411 36.707 18.8551 36.707 15.295C36.707 11.7349 33.8214 8.84888 30.2617 8.84888C26.7021 8.84888 23.8164 11.7349 23.8164 15.295C23.8164 18.8551 26.7021 21.7411 30.2617 21.7411Z" fill="#63EA86"/>
<path d="M44.0288 19.3252H47.1185C47.2428 19.3252 47.3621 19.3746 47.45 19.4625C47.5379 19.5504 47.5873 19.6696 47.5873 19.7939V24.0235C47.5873 24.1478 47.5379 24.267 47.45 24.3549C47.3621 24.4428 47.2428 24.4922 47.1185 24.4922H44.0288C43.3436 24.4922 42.6865 24.22 42.202 23.7355C41.7175 23.251 41.4453 22.5939 41.4453 21.9087C41.4453 21.2235 41.7175 20.5664 42.202 20.0819C42.6865 19.5974 43.3436 19.3252 44.0288 19.3252Z" fill="#FFE236"/>
<path d="M47.1172 19.3252H45.3594C45.4837 19.3252 45.6029 19.3746 45.6908 19.4625C45.7787 19.5504 45.8281 19.6696 45.8281 19.7939V24.0235C45.8281 24.085 45.816 24.146 45.7924 24.2029C45.7689 24.2597 45.7344 24.3114 45.6908 24.3549C45.6473 24.3985 45.5956 24.433 45.5388 24.4565C45.4819 24.4801 45.4209 24.4922 45.3594 24.4922H47.1172C47.1787 24.4922 47.2397 24.4801 47.2966 24.4565C47.3534 24.433 47.4051 24.3985 47.4486 24.3549C47.4922 24.3114 47.5267 24.2597 47.5503 24.2029C47.5738 24.146 47.5859 24.085 47.5859 24.0235V19.7939C47.5859 19.6696 47.5366 19.5504 47.4486 19.4625C47.3607 19.3746 47.2415 19.3252 47.1172 19.3252Z" fill="#FFDF1F"/>
<path d="M3.62938 21.574H10.2973C10.5304 21.574 10.7539 21.4814 10.9188 21.3165C11.0836 21.1517 11.1762 20.9282 11.1762 20.6951C11.1762 20.4619 11.0836 20.2384 10.9188 20.0736C10.7539 19.9087 10.5304 19.8161 10.2973 19.8161H3.62938C3.39628 19.8161 3.17273 19.9087 3.0079 20.0736C2.84307 20.2384 2.75047 20.4619 2.75047 20.6951C2.75047 20.9282 2.84307 21.1517 3.0079 21.3165C3.17273 21.4814 3.39628 21.574 3.62938 21.574ZM1.87157 25.0896H10.2973C10.5304 25.0896 10.7539 24.997 10.9188 24.8322C11.0836 24.6673 11.1762 24.4438 11.1762 24.2107C11.1762 23.9776 11.0836 23.754 10.9188 23.5892C10.7539 23.4244 10.5304 23.3318 10.2973 23.3318H1.87157C1.63847 23.3318 1.41491 23.4244 1.25009 23.5892C1.08526 23.754 0.99266 23.9776 0.99266 24.2107C0.99266 24.4438 1.08526 24.6673 1.25009 24.8322C1.41491 24.997 1.63847 25.0896 1.87157 25.0896ZM5.38719 18.0583H10.2973C10.5304 18.0583 10.7539 17.9657 10.9188 17.8009C11.0836 17.6361 11.1762 17.4125 11.1762 17.1794C11.1762 16.9463 11.0836 16.7228 10.9188 16.5579C10.7539 16.3931 10.5304 16.3005 10.2973 16.3005H5.38719C5.15409 16.3005 4.93054 16.3931 4.76571 16.5579C4.60088 16.7228 4.50829 16.9463 4.50829 17.1794C4.50829 17.4125 4.60088 17.6361 4.76571 17.8009C4.93054 17.9657 5.15409 18.0583 5.38719 18.0583ZM59.1211 50.2754H56.8391C57.9354 49.2872 58.6657 47.9575 58.9116 46.5022C59.1946 44.8237 58.8217 43.1007 57.8699 41.6896L58.3721 41.3908C58.4713 41.3318 58.5579 41.2538 58.6269 41.1613C58.696 41.0688 58.7462 40.9637 58.7746 40.8518C58.803 40.7399 58.8091 40.6235 58.7925 40.5093C58.7759 40.3951 58.737 40.2852 58.678 40.1861C57.8737 38.8367 56.6864 37.7568 55.267 37.0838C53.8476 36.4108 52.2601 36.175 50.7063 36.4064C49.9575 34.6235 49.1868 32.0836 48.4402 29.6219C48.0047 28.1857 47.5578 26.7125 47.1106 25.3735H47.5877C47.7032 25.3735 47.8175 25.3507 47.9241 25.3066C48.0307 25.2624 48.1276 25.1976 48.2092 25.116C48.2908 25.0344 48.3556 24.9375 48.3998 24.8309C48.4439 24.7243 48.4667 24.61 48.4666 24.4945V19.3275C48.4667 19.2121 48.4439 19.0978 48.3998 18.9912C48.3556 18.8846 48.2908 18.7877 48.2092 18.706C48.1276 18.6244 48.0307 18.5597 47.9241 18.5155C47.8175 18.4714 47.7032 18.4486 47.5877 18.4486H44.0293C43.2643 18.4496 42.5211 18.7035 41.9154 19.1708C41.3097 19.638 40.8754 20.2924 40.6803 21.0321H37.3174C37.0843 21.0321 36.8607 21.1247 36.6959 21.2896C36.531 21.4544 36.4384 21.6779 36.4384 21.911C36.4384 22.1441 36.531 22.3677 36.6959 22.5325C36.8607 22.6973 37.0843 22.7899 37.3174 22.7899H40.6803C40.8106 23.2846 41.0492 23.7442 41.3787 24.1355C41.3864 24.1871 41.3986 24.2379 41.4153 24.2873C41.9049 25.7202 42.7669 28.939 42.8288 29.2313C43.7902 33.7718 43.9248 39.4068 39.1061 40.468C38.0534 40.6942 36.9597 40.6373 35.9361 40.3033C34.9126 39.9692 33.9959 39.3699 33.2793 38.5664C31.4662 36.4904 31.3458 33.2954 32.9857 30.7949C33.4383 30.5066 33.7851 30.0791 33.974 29.5768C34.1629 29.0746 34.1837 28.5245 34.0333 28.0094C33.8829 27.4943 33.5694 27.0419 33.1399 26.7201C32.7104 26.3984 32.1881 26.2248 31.6515 26.2252H30.9011C30.916 26.1282 30.9238 26.0302 30.9246 25.932V22.5893C32.1518 22.4784 33.3313 22.0597 34.3537 21.3719C35.3761 20.684 36.2085 19.7494 36.7737 18.6544C37.3389 17.5594 37.6187 16.3395 37.5872 15.1077C37.5558 13.8758 37.214 12.6718 36.5935 11.6072C35.9731 10.5425 35.0941 9.6516 34.0378 9.01692C32.9816 8.38224 31.7823 8.02431 30.551 7.97627C29.3197 7.92823 28.0961 8.19164 26.9937 8.74211C25.8912 9.29257 24.9454 10.1123 24.244 11.1254H14.9848C14.4411 11.126 13.9198 11.3423 13.5353 11.7267C13.1509 12.1112 12.9346 12.6325 12.934 13.1762V25.932C12.9346 26.4757 13.1509 26.997 13.5353 27.3815C13.9198 27.7659 14.4411 27.9822 14.9848 27.9828H16.3536C16.2151 28.4351 16.2094 28.9176 16.3371 29.3731C16.4648 29.8285 16.7206 30.2377 17.0741 30.552C16.7706 30.6932 16.4736 30.8458 16.1854 31.0124C13.1737 32.7528 10.6256 36.1427 9.69372 39.6488C9.11342 41.8321 9.24236 43.8154 10.054 45.2422C10.0553 45.2446 10.0566 45.247 10.0579 45.2494C10.0642 45.2605 10.0697 45.2722 10.0761 45.2833C10.0791 45.2884 10.0829 45.2928 10.0859 45.2978C10.0998 45.3206 10.1147 45.3427 10.1307 45.3641C10.1353 45.3705 10.1396 45.3772 10.1444 45.3834C10.1652 45.4098 10.1875 45.4349 10.2111 45.4587C10.2177 45.4654 10.2247 45.4716 10.2315 45.478C10.2506 45.4962 10.2705 45.5135 10.2912 45.5299C10.2984 45.5356 10.3054 45.5413 10.3127 45.5467C10.3392 45.5665 10.3667 45.5847 10.3952 45.6014L10.3983 45.6034C10.4292 45.621 10.4611 45.6367 10.4939 45.6504C10.5007 45.6533 10.5076 45.6556 10.5144 45.6582C10.5398 45.6682 10.5657 45.677 10.5923 45.6847C10.6023 45.6876 10.6124 45.6903 10.6225 45.6928C10.632 45.6952 10.641 45.6983 10.6506 45.7004C10.6671 45.704 10.6836 45.7058 10.7001 45.7084C10.7093 45.7098 10.7184 45.7117 10.7278 45.7128C10.764 45.7176 10.8004 45.7202 10.8369 45.7204C10.839 45.7204 10.841 45.7199 10.8431 45.7199L10.8471 45.7199L13.9631 45.6793C14.0065 46.5534 14.2237 47.41 14.6019 48.1991C14.9802 48.9883 15.5119 49.6941 16.1661 50.2754H0.878906C0.645806 50.2754 0.422253 50.368 0.257426 50.5328C0.0925988 50.6977 0 50.9212 0 51.1543C0 51.3874 0.0925988 51.611 0.257426 51.7758C0.422253 51.9406 0.645806 52.0332 0.878906 52.0332H59.1211C59.3542 52.0332 59.5777 51.9406 59.7426 51.7758C59.9074 51.611 60 51.3874 60 51.1543C60 50.9212 59.9074 50.6977 59.7426 50.5328C59.5777 50.368 59.3542 50.2754 59.1211 50.2754ZM51.8719 38.0811C52.7901 38.0803 53.6969 38.2846 54.526 38.6792C55.3551 39.0737 56.0856 39.6485 56.664 40.3616L56.2427 40.6123C56.1421 40.6494 56.0492 40.7047 55.9686 40.7754L45.8529 46.7949C45.288 45.4287 45.2334 43.9049 45.6989 42.5017C46.1645 41.0986 47.1192 39.9096 48.3887 39.1521L48.7372 38.9447C49.685 38.3791 50.7682 38.0806 51.8719 38.0811ZM53.713 45.611C53.6616 45.9109 53.5085 46.184 53.2795 46.3844C53.0505 46.5847 52.7595 46.7002 52.4554 46.7112C52.1514 46.7223 51.8527 46.6284 51.6097 46.4452C51.3668 46.2621 51.1942 46.0009 51.1211 45.7055L53.3009 44.4084C53.4648 44.5583 53.5884 44.747 53.6604 44.9571C53.7324 45.1672 53.7505 45.3921 53.713 45.611H53.713ZM42.3247 21.911C42.3252 21.4591 42.505 21.0258 42.8246 20.7063C43.1441 20.3867 43.5774 20.207 44.0293 20.2064H46.7088V23.6156H44.0293C43.5774 23.6151 43.1441 23.4354 42.8246 23.1158C42.505 22.7962 42.3252 22.363 42.3247 21.911ZM31.6515 27.983C31.8426 27.983 32.0259 28.0585 32.1614 28.1931C32.297 28.3278 32.3738 28.5106 32.3749 28.7017C32.3761 28.8927 32.3017 29.0765 32.1678 29.2128C32.034 29.3492 31.8516 29.427 31.6605 29.4293H23.2977C22.7516 29.3981 22.2042 29.3983 21.6582 29.4298H18.7265C18.6315 29.4299 18.5373 29.4113 18.4494 29.375C18.3616 29.3387 18.2817 29.2854 18.2145 29.2182C18.1472 29.151 18.0938 29.0712 18.0574 28.9834C18.021 28.8956 18.0023 28.8015 18.0023 28.7064C18.0023 28.6113 18.021 28.5172 18.0574 28.4294C18.0938 28.3415 18.1472 28.2618 18.2145 28.1946C18.2817 28.1274 18.3616 28.0741 18.4494 28.0378C18.5373 28.0015 18.6315 27.9829 18.7265 27.983H31.6515ZM30.2604 9.72852C31.3615 9.72836 32.4379 10.0547 33.3535 10.6664C34.2692 11.278 34.9829 12.1475 35.4044 13.1647C35.8258 14.182 35.9362 15.3014 35.7215 16.3814C35.5068 17.4614 34.9766 18.4534 34.198 19.2321C33.4195 20.0108 32.4275 20.5411 31.3475 20.756C30.2676 20.9708 29.1482 20.8606 28.1308 20.4393C27.1135 20.0179 26.244 19.3044 25.6322 18.3888C25.0204 17.4733 24.6939 16.3969 24.6939 15.2958C24.6954 13.8199 25.2824 12.4048 26.3259 11.3611C27.3695 10.3174 28.7844 9.73029 30.2604 9.72852V9.72852ZM14.9848 26.225C14.9071 26.2249 14.8326 26.194 14.7777 26.1391C14.7228 26.0842 14.6919 26.0097 14.6918 25.932V13.1762C14.6919 13.0985 14.7228 13.024 14.7777 12.9691C14.8326 12.9142 14.9071 12.8833 14.9848 12.8832H23.3462C22.9909 13.8995 22.8641 14.9817 22.975 16.0527C23.0858 17.1236 23.4314 18.1569 23.9872 19.079C24.5431 20.001 25.2955 20.7892 26.1907 21.3872C27.086 21.9852 28.1022 22.3784 29.1668 22.5388V25.932C29.1667 26.0097 29.1358 26.0842 29.0809 26.1391C29.026 26.194 28.9515 26.2249 28.8738 26.225H14.9848ZM11.3925 40.1003C12.2105 37.0227 14.4371 34.0528 17.0649 32.5342C18.4869 31.7314 20.0761 31.2704 21.707 31.1876H30.7852C29.5362 34.0868 29.9479 37.4241 31.9555 39.7227C32.8808 40.7618 34.0651 41.5371 35.3876 41.9696C36.7101 42.4021 38.1236 42.4763 39.4842 42.1846C44.342 41.1149 46.1405 36.3854 44.5485 28.8673C44.4887 28.5845 44.0296 26.8577 43.5847 25.3439C43.7321 25.3633 43.8806 25.3731 44.0293 25.3735H45.2546C45.7556 26.8265 46.2642 28.5035 46.758 30.132C47.4879 32.5389 48.2407 35.0194 48.995 36.868C48.5948 37.0253 48.2081 37.2146 47.8384 37.4341L47.4899 37.6415C46.5956 38.1703 45.8152 38.8712 45.1936 39.7037C44.5721 40.5362 44.1219 41.4837 43.869 42.4914C43.7824 42.8346 43.7186 43.1833 43.6781 43.535L30.2158 43.71C29.3281 39.6307 26.4798 36.3626 22.9447 35.4567C20.537 34.8398 17.8017 35.3235 15.4399 36.7834C13.6118 37.9273 12.1246 39.5414 11.1339 41.4568C11.1861 40.9988 11.2726 40.5454 11.3925 40.1003ZM11.9874 43.9471C12.7593 41.5746 14.3136 39.5462 16.3642 38.2786C18.3218 37.0686 20.5613 36.6606 22.5084 37.1595C25.3075 37.8767 27.5914 40.4583 28.4167 43.7334L11.9874 43.9471ZM21.8585 45.5766C21.8062 45.8816 21.6488 46.1585 21.4136 46.3595C21.1783 46.5604 20.8801 46.6727 20.5708 46.6767C20.2614 46.6807 19.9604 46.5763 19.7201 46.3815C19.4797 46.1867 19.3151 45.914 19.2549 45.6105L21.8585 45.5766ZM20.5541 50.1933C19.3233 50.1918 18.1392 49.7221 17.2421 48.8795C16.3449 48.037 15.8019 46.8847 15.7231 45.6564L17.4847 45.6335C17.5555 46.406 17.9149 47.1234 18.4912 47.6425C19.0676 48.1616 19.8185 48.4444 20.5941 48.4343C21.3697 48.4242 22.113 48.122 22.6757 47.5881C23.2383 47.0541 23.579 46.3276 23.6296 45.5536L25.3911 45.5307C25.3436 46.7823 24.8134 47.9669 23.9116 48.8361C23.0099 49.7054 21.8066 50.1918 20.5541 50.1933ZM24.9421 50.2754C25.6176 49.6748 26.1622 48.9416 26.542 48.1213C26.9218 47.3011 27.1286 46.4115 27.1495 45.5078L29.4354 45.4781C29.4753 45.4803 29.5154 45.4798 29.5552 45.4765L43.6699 45.293C43.7925 46.4201 44.1568 47.5076 44.7379 48.4811C44.7969 48.5803 44.8749 48.6669 44.9674 48.7359C45.0599 48.805 45.1651 48.8551 45.2769 48.8835C45.3888 48.9119 45.5052 48.918 45.6194 48.9015C45.7336 48.8849 45.8435 48.846 45.9427 48.787L46.5492 48.4261C46.9101 49.1222 47.3923 49.7484 47.973 50.2754H24.9421ZM55.2029 49.3398C54.6311 49.7442 53.9784 50.0198 53.2898 50.1475C52.6013 50.2752 51.8932 50.2519 51.2145 50.0794C50.5357 49.9069 49.9025 49.5892 49.3585 49.1482C48.8144 48.7072 48.3725 48.1534 48.0633 47.5251L49.5836 46.6204C49.7584 47.0212 50.0165 47.3801 50.3408 47.6735C50.665 47.9668 51.0479 48.1878 51.4641 48.3218C51.8803 48.4557 52.3203 48.4995 52.7548 48.4504C53.1892 48.4012 53.6082 48.2601 53.984 48.0365C54.3597 47.8129 54.6836 47.512 54.934 47.1536C55.1845 46.7952 55.3558 46.3876 55.4366 45.9579C55.5174 45.5282 55.5059 45.0862 55.4027 44.6613C55.2996 44.2364 55.1072 43.8384 54.8383 43.4935L56.3575 42.5895C56.7252 43.1085 56.987 43.6948 57.128 44.315C57.269 44.9352 57.2864 45.5771 57.1791 46.204C57.0719 46.8309 56.8422 47.4305 56.5031 47.9686C56.164 48.5066 55.7221 48.9726 55.2029 49.3398V49.3398ZM30.2604 16.1747H32.7949C33.028 16.1747 33.2515 16.0821 33.4164 15.9173C33.5812 15.7524 33.6738 15.5289 33.6738 15.2958C33.6738 15.0627 33.5812 14.8391 33.4164 14.6743C33.2515 14.5095 33.028 14.4169 32.7949 14.4169H31.1393V11.9729C31.1393 11.7398 31.0467 11.5162 30.8818 11.3514C30.717 11.1866 30.4935 11.094 30.2604 11.094C30.0273 11.094 29.8037 11.1866 29.6389 11.3514C29.474 11.5162 29.3814 11.7398 29.3814 11.9729V15.2958C29.3814 15.5289 29.474 15.7524 29.6389 15.9173C29.8037 16.0821 30.0273 16.1747 30.2604 16.1747Z" fill="#272A33"/>
</svg>
