<svg width="175" height="55" viewBox="0 0 175 55" fill="none" xmlns="http://www.w3.org/2000/svg">
<path d="M25.0968 0.875328C20.013 2.50414 14.7317 5.81111 14.7317 7.39056C14.7317 7.93349 17.1502 10.8456 20.5065 14.3994C23.6654 17.7063 27.6141 21.8524 29.2922 23.5799L32.2537 26.6894L19.6181 26.3439C5.0082 25.9491 5.50178 25.801 6.04472 30.2926C6.68637 35.7219 10.8818 44.3595 13.251 45.0999C13.7445 45.248 14.2381 45.7909 14.3862 46.2845C14.6823 47.4197 19.9636 50.9241 23.5174 52.3061C25.2449 52.9971 27.6141 53.4414 29.5884 53.4907C31.4146 53.5401 33.0928 53.7375 33.3889 53.9349C34.2774 54.4779 40.2003 53.2933 43.5073 51.9606C47.0117 50.5786 51.2564 47.6171 51.2564 46.63C51.2564 46.2351 51.75 45.8403 52.3917 45.6428C53.7737 45.2973 57.13 40.2135 58.6601 36.2155C60.0915 32.3656 60.437 25.2581 59.4005 20.7665C58.4133 16.6698 55.5012 11.043 53.3788 9.41423C52.4904 8.67386 51.75 7.83478 51.75 7.58799C51.75 6.10725 43.8034 1.56634 39.4106 0.529823C35.8075 -0.309261 28.2064 -0.111828 25.0968 0.875328ZM32.9941 3.14579C32.9941 4.87331 32.9941 4.87331 30.8717 4.87331C27.6634 4.87331 24.0603 6.10725 20.6546 8.42707C18.1867 10.0559 17.4957 10.3027 17.1502 9.75973C16.1137 8.08157 18.0387 5.81111 22.2341 3.59001C25.0475 2.15863 27.466 1.51698 30.6743 1.46762L32.9941 1.41826V3.14579ZM40.6445 2.60285C43.6553 3.39257 45.9752 4.57716 48.3937 6.50212C50.7135 8.37771 50.9603 9.11808 49.7757 10.4014L48.7886 11.4873L47.1598 9.9078C45.0374 7.88414 39.6574 5.41624 36.4985 5.02139C34.5242 4.77459 33.9812 4.52781 33.9812 3.8368C33.9812 1.9612 36.4985 1.46762 40.6445 2.60285ZM32.9447 12.6225C32.8954 16.6698 32.7473 21.2601 32.5498 22.8395L32.2537 25.7517L25.5904 18.6935C21.9379 14.8436 18.8777 11.4873 18.779 11.2898C18.5816 10.7469 21.3456 8.72322 24.011 7.3412C26.1827 6.25533 29.1442 5.51496 31.6614 5.41624L32.9941 5.36689L32.9447 12.6225ZM42.0265 7.48927C43.4579 8.13092 45.4816 9.41423 46.4687 10.3027L48.295 11.8821L41.3355 18.6441C37.4856 22.346 34.1293 25.4061 33.9319 25.5049C33.3889 25.7023 33.3396 18.7428 33.7838 10.9937L34.1293 5.56432L36.7453 5.90982C38.1766 6.10725 40.5458 6.79826 42.0265 7.48927ZM56.5871 16.8673C57.13 18.2986 57.7223 20.7172 57.9197 22.2472C58.2159 24.6658 58.1172 25.1594 57.2287 26.0478C56.6364 26.6401 55.9948 27.0843 55.7974 27.0843C55.5999 27.0843 55.1557 25.5049 54.8596 23.5799C54.3166 19.9768 51.8981 14.4981 50.2199 12.968C49.2821 12.1289 49.2821 12.0795 50.368 10.895L51.5032 9.71037L53.5763 11.9808C54.7115 13.2641 56.0935 15.4359 56.5871 16.8673ZM51.1577 15.7814C52.984 18.8416 54.2179 22.5434 54.2179 25.0606V26.8375L45.4816 26.6894C40.6445 26.6401 36.153 26.492 35.462 26.4427C34.3267 26.3439 35.0177 25.5542 41.2368 19.5326C45.1361 15.7814 48.5911 12.7706 48.9366 12.8693C49.2328 13.0173 50.2693 14.3006 51.1577 15.7814ZM10.9805 29.9471C11.326 32.9579 13.251 37.5482 15.4227 40.3616C16.6073 41.941 16.6566 42.1384 15.8669 42.9775C14.6823 44.3102 13.9913 44.0634 12.3132 41.941C8.01903 36.5116 6.39022 27.0843 9.74655 27.0843C10.4869 27.0843 10.7337 27.6272 10.9805 29.9471ZM30.4768 28.8612C29.5884 29.8483 26.1827 33.0566 23.0238 36.0674L17.1996 41.4968L16.2124 40.3616C14.1888 37.943 12.1651 33.1553 11.9183 30.0951L11.6221 27.0843H21.9379H32.2043L30.4768 28.8612ZM54.4153 29.6509C53.7737 34.0438 50.7135 40.4603 48.6898 41.6942C48.3937 41.8916 47.0117 40.8058 45.4322 39.1276C43.9021 37.5482 40.7926 34.2905 38.4728 31.872L34.228 27.5779H44.4944H54.7115L54.4153 29.6509ZM58.2653 30.5887C57.8704 37.5975 52.293 45.6922 49.4796 43.323C48.8873 42.8294 49.0353 42.4839 50.2693 41.1019C52.7865 38.1898 55.2051 32.3162 55.2051 28.9599C55.2051 27.6766 55.3531 27.5779 56.8339 27.7753L58.4133 27.9234L58.2653 30.5887ZM32.3524 38.0417C32.155 43.4711 31.9576 48.0614 31.8588 48.1601C31.7601 48.2094 30.3781 48.0614 28.7493 47.7652C25.4423 47.1729 20.8027 44.9025 19.0752 43.0269L17.9399 41.7929L25.0968 34.9322C29.0454 31.181 32.3524 28.0715 32.4511 28.0715C32.5498 28.0715 32.5005 32.563 32.3524 38.0417ZM47.2585 42.632C47.3078 44.3102 38.3741 48.3082 34.6722 48.3082H32.9941V42.9775C32.9941 40.0654 33.1421 35.5245 33.3396 32.8592L33.6357 27.9728L40.4471 35.0803C44.1983 38.9302 47.2585 42.3359 47.2585 42.632ZM19.47 44.4089C22.1847 46.5806 26.3801 48.3575 29.4403 48.6537C31.7601 48.9004 32.0563 49.0485 31.9082 49.9863C31.4146 53.392 22.5796 51.5164 17.1502 46.8274C14.9785 44.9518 14.9785 44.9518 15.9163 43.9153C17.1009 42.5827 17.1996 42.5827 19.47 44.4089ZM48.8379 45.9883C48.1963 47.6171 43.9021 50.5293 40.6445 51.5164C39.3119 51.9113 36.992 52.2568 35.61 52.2568C33.0434 52.2568 32.9941 52.2074 32.9941 50.8254C32.9941 49.4927 33.1421 49.4434 36.2517 48.9004C39.6574 48.3575 44.7412 46.1858 46.8142 44.4582C47.8014 43.6192 48.1469 43.5698 48.6898 44.0634C49.1341 44.5076 49.1834 45.0505 48.8379 45.9883Z" fill="white"/>
<path d="M28.7455 8.08315C27.8077 8.82352 27.8077 8.82352 28.9923 9.81067C30.3743 10.9953 31.6576 10.9459 31.9044 9.6626C32.1018 8.67544 31.2134 7.34278 30.325 7.34278C29.9795 7.34278 29.2884 7.68829 28.7455 8.08315ZM30.325 9.07031C30.7692 9.46517 30.8679 9.81067 30.6211 9.81067C30.3743 9.81067 29.8807 9.46517 29.5352 9.07031C29.1897 8.67544 29.091 8.32994 29.2391 8.32994C29.4365 8.32994 29.9301 8.67544 30.325 9.07031Z" fill="white"/>
<path d="M22.2325 9.95504C20.8998 11.3371 20.8504 12.3242 22.035 13.7556C23.7625 15.878 27.5631 14.496 27.5631 11.7319C27.5631 10.4486 25.8356 8.81981 24.4536 8.81981C23.8119 8.81981 22.8247 9.31339 22.2325 9.95504ZM26.4772 11.6332C26.5759 12.8178 26.3785 13.3114 25.6381 13.7556C24.3055 14.4466 22.6273 13.6075 22.6273 12.2749C22.6273 10.3993 23.1702 9.75761 24.7991 9.90568C26.1317 10.0538 26.3291 10.2512 26.4772 11.6332Z" fill="white"/>
<path d="M27.9584 14.0976C26.9712 14.3443 26.3789 15.7264 27.0206 16.368C27.3661 16.7135 27.3167 17.059 26.8231 17.4045C26.2308 17.8487 26.2308 18.0955 26.8231 18.8853C27.218 19.4282 27.7609 19.6256 28.1558 19.3788C28.5013 19.1814 29.291 18.984 29.982 18.984C31.7095 18.9346 32.4499 17.5032 31.5121 15.8744C30.7224 14.4924 29.3404 13.8014 27.9584 14.0976ZM30.7224 15.8251C31.2653 16.6148 31.3147 17.1084 30.9198 17.8487C30.4262 18.7865 30.3275 18.7865 29.7846 18.0462C29.2417 17.3058 29.0936 17.3058 28.5506 17.9475C28.2051 18.3423 27.7116 18.5398 27.4648 18.3917C27.218 18.2436 27.3661 17.7007 27.8103 17.2071C28.5506 16.4174 28.5506 16.3187 27.8103 16.0225C27.3661 15.8744 27.1686 15.5289 27.3167 15.2328C27.8596 14.3443 29.9327 14.6898 30.7224 15.8251Z" fill="white"/>
<path d="M35.2585 8.42807C34.8143 9.02037 34.4688 9.85945 34.4688 10.3037C34.4688 11.7844 35.9495 13.2651 37.4796 13.2651C38.8616 13.2651 40.8853 11.7844 40.8853 10.7479C40.8853 10.0075 39.8487 8.13193 39.2071 7.73707C38.0719 6.94734 35.9988 7.3422 35.2585 8.42807ZM39.4045 9.06973C40.1449 10.0075 39.7007 12.0805 38.6148 12.4754C36.3937 13.3145 34.7649 11.0934 36.295 9.36587C37.3315 8.13193 38.5654 8.03321 39.4045 9.06973Z" fill="white"/>
<path d="M42.5719 10.9965C42.4239 11.3914 42.3745 12.2304 42.4732 12.8721C42.5719 13.7112 42.9175 14.0073 43.8553 14.0073C45.3853 14.0073 45.7802 12.5759 44.5463 11.2433C43.5591 10.1081 42.9175 10.0587 42.5719 10.9965ZM44.102 11.7862C44.2501 12.0824 44.0527 12.1317 43.6578 11.9837C42.7694 11.6382 42.6213 11.2926 43.3123 11.2926C43.6085 11.2926 43.954 11.4901 44.102 11.7862ZM44.3488 12.9708C44.3488 13.1189 44.1514 13.3657 43.8553 13.5137C43.6085 13.6618 43.3617 13.5631 43.3617 13.3163C43.3617 13.0202 43.6085 12.7734 43.8553 12.7734C44.1514 12.7734 44.3488 12.8721 44.3488 12.9708Z" fill="white"/>
<path d="M36.4924 14.6939C36.1469 14.9407 35.9988 15.3849 36.1963 15.7304C36.4431 16.1746 36.295 16.224 35.5053 15.9772C34.6168 15.7304 34.4688 15.8785 34.4688 16.915C34.4688 17.8528 34.7155 18.1983 35.4559 18.1983C36.0976 18.1983 36.295 18.4451 36.1469 18.8893C35.7027 20.0246 37.8251 20.4194 38.9603 19.3829C41.2308 17.3099 39.059 13.0651 36.4924 14.6939ZM38.911 15.6811C39.602 17.0631 39.5526 18.0009 38.6148 18.8893C37.7264 19.7778 36.7392 19.4323 37.1341 18.3957C37.3315 17.9022 37.0354 17.7047 36.1963 17.7047C34.6662 17.7047 34.5675 16.8657 36.0976 16.6189C36.8379 16.5202 37.1341 16.1746 37.0354 15.5824C36.8379 14.4471 38.2693 14.4965 38.911 15.6811Z" fill="white"/>
<path d="M46.1227 16.0309C45.6785 17.2155 46.715 18.2026 48.3438 18.2026C49.3803 18.2026 49.7752 17.9558 49.7752 17.3142C49.7752 15.3892 46.7644 14.3527 46.1227 16.0309ZM47.5541 16.7219C47.7022 16.9687 47.6034 17.2155 47.3566 17.2155C47.0605 17.2155 46.8137 16.9687 46.8137 16.7219C46.8137 16.4258 46.9124 16.2283 47.0111 16.2283C47.1592 16.2283 47.406 16.4258 47.5541 16.7219Z" fill="white"/>
<path d="M48.4413 20.1749C46.2696 21.0633 46.2696 24.3703 48.4413 25.6042C49.6259 26.2459 49.922 26.2459 51.1066 25.6042C53.3277 24.3703 53.2784 21.3101 51.0079 20.2736C50.3169 19.9281 49.6753 19.6813 49.6259 19.7306C49.5765 19.7306 49.0336 19.9281 48.4413 20.1749ZM51.2547 21.4088C51.9457 22.2479 51.5015 24.8145 50.7611 24.3703C50.465 24.2222 50.2675 24.3209 50.2675 24.5677C50.2675 24.8638 49.9714 25.1106 49.5765 25.1106C48.6881 25.1106 47.3061 23.778 47.3061 22.8895C47.3061 21.0633 50.1195 20.0268 51.2547 21.4088Z" fill="white"/>
<path d="M41.3833 20.812C39.7545 21.6017 39.4583 23.576 40.8403 23.9709C41.4326 24.119 41.8768 24.6619 41.8768 25.1555C41.8768 25.8465 42.2224 26.0933 43.1602 26.0933C44.1473 26.0933 44.3447 25.8958 44.0979 25.1555C43.9005 24.5138 44.0979 24.1683 44.8383 23.9709C46.171 23.6254 46.1216 21.8979 44.7396 20.9601C43.4069 20.0223 43.0121 20.0223 41.3833 20.812ZM44.8383 21.8979C45.5293 22.7369 45.0851 23.6747 44.0979 23.2799C43.6044 23.1318 43.3576 23.3786 43.3576 24.0696C43.3576 24.6619 43.1602 25.1061 42.864 25.1061C42.6172 25.1061 42.3704 24.6619 42.3704 24.0696C42.3704 23.3786 42.1236 23.1318 41.6794 23.2799C40.6923 23.6747 40.3468 23.1318 40.9391 22.0953C41.5313 20.9601 43.9499 20.8613 44.8383 21.8979Z" fill="white"/>
<path d="M14.3358 28.3694C12.6576 29.5047 13.0031 32.4661 14.8787 33.5026C16.0633 34.1443 16.3595 34.1443 17.5934 33.5026C19.3703 32.5155 19.6664 30.0476 18.2351 28.6162C17.0011 27.3823 15.8165 27.2836 14.3358 28.3694ZM17.6921 29.554C19.1729 31.0348 18.3338 32.7623 16.162 32.7623C14.78 32.7623 14.4345 32.5649 14.3358 31.6271C14.2371 31.0348 14.4345 30.5412 14.78 30.5412C15.1255 30.5412 15.2736 30.3931 15.0762 30.245C14.78 29.8995 15.7178 28.6162 16.3595 28.5669C16.5569 28.5669 17.1492 29.0111 17.6921 29.554Z" fill="white"/>
<path d="M21.8889 28.0702C21.7409 28.3169 21.6915 28.7612 21.8396 29.008C21.9877 29.2547 21.6915 29.5509 21.1486 29.699C19.0755 30.2419 20.7044 33.4995 22.9748 33.4995C24.653 33.4995 26.2818 31.8707 25.8869 30.6368C25.3933 29.156 24.7023 29.2547 24.9491 30.7355C25.3933 32.8579 21.7409 33.7463 20.9511 31.7226C20.5563 30.6861 21.0005 30.0445 21.8889 30.39C22.3825 30.538 22.6293 30.2913 22.6293 29.6002C22.6293 29.008 22.8761 28.5637 23.1722 28.5637C23.419 28.5637 23.6165 29.008 23.5177 29.5509C23.419 30.0445 23.5177 30.4887 23.7645 30.538C23.962 30.538 24.11 30.4393 24.11 30.2913C24.11 30.1432 24.11 29.5015 24.11 28.8105C24.11 27.9221 23.8633 27.5766 23.1722 27.5766C22.6293 27.5766 22.037 27.774 21.8889 28.0702Z" fill="white"/>
<path d="M16.2109 36.3653C16.2109 37.5993 17.8397 39.0306 18.8269 38.6358C20.8999 37.8461 20.0115 35.4769 17.6423 35.4769C16.5564 35.4769 16.2109 35.7237 16.2109 36.3653ZM19.1724 36.9083C19.1724 37.2044 18.9256 37.5499 18.5801 37.7473C18.2346 37.9941 18.1852 37.8954 18.432 37.4512C18.7282 36.9576 18.6295 36.8589 18.0372 37.1057C17.5436 37.2538 17.1981 37.2044 17.1981 36.9576C17.1981 36.6615 17.6423 36.464 18.1852 36.464C18.7282 36.464 19.1724 36.6615 19.1724 36.9083Z" fill="white"/>
<path d="M40.9881 29.1594C40.2477 29.8997 40.1984 31.035 40.9881 31.035C41.2843 31.035 41.2349 31.3805 40.7413 31.9234C40.0997 32.6144 40.0503 32.9599 40.4945 33.4041C41.2349 34.1445 42.3701 34.1939 42.3701 33.5029C42.3701 33.2067 42.9131 33.108 43.6534 33.3054C45.8252 33.8484 46.6149 31.3311 44.838 29.5542C43.7521 28.4684 41.8766 28.2709 40.9881 29.1594ZM44.3444 30.0478C45.4303 31.1337 45.529 31.4792 44.8874 32.4663C44.4925 33.0586 44.2951 33.0586 43.7028 32.5651C43.2092 32.1702 42.8637 32.1208 42.6169 32.5157C42.4688 32.7625 41.9753 33.0093 41.531 33.0093C40.84 33.0093 40.84 32.8612 41.6791 31.9728C42.4195 31.183 42.4688 30.8869 41.9259 30.5907C41.1362 30.0972 41.6298 29.0607 42.6663 29.0607C43.0611 29.0607 43.8015 29.5049 44.3444 30.0478Z" fill="white"/>
<path d="M49.4784 29.3065C48.9849 30.5405 50.1201 32.6135 51.1566 32.4161C51.7489 32.3173 51.9957 31.7744 51.9957 30.5405C51.9957 29.1091 51.7982 28.7636 50.8604 28.6649C50.2188 28.5661 49.6265 28.8129 49.4784 29.3065ZM50.8604 29.8988C50.3669 30.0962 50.3669 30.2937 50.8604 30.9353C51.4527 31.6757 51.4034 31.725 50.663 31.0834C50.1694 30.7379 49.7746 30.2443 49.7746 29.9975C49.7746 29.7507 50.1694 29.5533 50.663 29.6027C51.206 29.6027 51.2553 29.7014 50.8604 29.8988Z" fill="white"/>
<path d="M45.9266 33.7993C44.6926 34.6384 44.4952 36.7607 45.5317 38.1921C46.4201 39.4261 49.0855 39.3767 50.0233 38.1428C51.6027 36.0697 50.27 33.0095 47.8022 33.0095C47.3579 33.0095 46.5189 33.355 45.9266 33.7993ZM49.8258 35.3294C50.3688 36.8101 49.2335 37.9453 47.4073 37.7479C46.0253 37.5998 45.433 36.2672 46.0253 34.6877C46.4695 33.5031 49.3323 33.9967 49.8258 35.3294Z" fill="white"/>
<path d="M26.9239 34.3869C25.2951 36.1638 26.2329 39.4214 28.3553 39.4214C28.997 39.4214 29.688 39.0759 29.836 38.681C30.0335 38.2862 30.4283 37.9407 30.8232 37.9407C31.2181 37.9407 31.5142 37.7432 31.5142 37.4964C31.5142 37.2496 31.6623 36.7067 31.8104 36.2625C32.0571 35.6702 31.8104 35.4728 30.7245 35.4728C29.9841 35.4728 29.5399 35.3247 29.688 35.1273C30.1322 34.7324 29.0957 33.4985 28.3059 33.4985C28.0098 33.4985 27.3682 33.8933 26.9239 34.3869ZM28.9476 35.3247C28.8489 35.8676 29.2437 36.2625 30.0335 36.5093C31.2181 36.8548 31.2181 36.8548 30.1815 36.9041C29.3918 36.9535 29.0463 37.2496 29.0463 37.9407C29.0463 39.0265 28.0592 39.224 27.1707 38.3355C26.4304 37.5951 26.4304 35.8183 27.1707 35.0779C28.0592 34.1895 29.0957 34.3375 28.9476 35.3247Z" fill="white"/>
<path d="M21 39.7203C20.3584 40.3619 20.6545 41.7439 21.6417 42.6324C22.925 43.7676 23.7641 43.0766 23.5173 41.1023C23.3692 39.7203 21.8391 38.8812 21 39.7203ZM22.1353 40.9049C21.4936 41.3491 21.7898 41.5959 22.7769 41.4478C22.9744 41.4478 23.1224 41.5959 23.1224 41.892C23.1224 42.583 22.3327 42.4843 21.691 41.7439C21.1481 41.0529 21.4443 40.4113 22.3327 40.4113C22.6288 40.4113 22.5301 40.6581 22.1353 40.9049Z" fill="white"/>
<path d="M26.4305 41.0053C25.0485 42.0912 24.851 44.1149 26.0356 45.2995C28.0593 47.3231 31.5143 46.0398 31.5143 43.2758C31.5143 41.104 28.2567 39.6727 26.4305 41.0053ZM30.083 42.4861C30.4778 43.2758 30.4778 43.6213 29.9843 43.9174C29.5894 44.1642 29.54 44.3617 29.7868 44.3617C30.083 44.3617 29.9349 44.6084 29.54 44.8552C28.2567 45.6943 26.6773 45.3982 26.3318 44.3617C25.394 41.4495 28.6516 39.8207 30.083 42.4861Z" fill="white"/>
<path d="M37.7826 34.3406C37.3384 34.7848 37.3384 35.4759 37.832 35.4265C38.8685 35.2291 38.9672 35.5746 38.1775 36.463C37.3878 37.3514 37.3878 37.4502 38.1281 37.7463C39.1647 38.1412 38.6217 38.9309 37.2397 38.9309C35.8577 38.9309 34.9692 38.0425 34.9692 36.6604C34.9692 35.1797 35.759 34.7355 36.4006 35.8214C36.9929 36.8579 37.5852 36.463 37.141 35.2784C36.4006 33.3041 33.6366 35.0316 34.1795 37.2034C34.6731 39.079 36.6474 40.2142 38.2269 39.4738C39.2634 39.0296 39.4608 38.6841 39.214 37.697C39.0659 37.0553 39.1153 36.3643 39.4114 36.2162C39.7076 36.0188 39.6582 35.5746 39.2634 34.9823C38.6217 33.9458 38.2762 33.7977 37.7826 34.3406Z" fill="white"/>
<path d="M39.4108 39.9174C38.2262 41.102 38.1768 42.2866 39.2133 43.7673C40.1511 45.1493 42.5203 45.1987 43.853 43.866C44.9882 42.7308 45.0375 42.2372 44.2972 40.7565C43.162 38.6341 41.0396 38.2886 39.4108 39.9174ZM43.0139 41.8424C42.8658 44.1128 42.2242 44.6558 40.6447 43.9648C39.7563 43.5699 39.4108 43.027 39.4108 41.9904C39.4108 40.1642 39.8056 39.8187 41.6319 40.0161C42.9645 40.1642 43.1126 40.3123 43.0139 41.8424Z" fill="white"/>
<path d="M34.6182 43.2266C34.2727 43.3253 33.9766 43.8189 33.9766 44.3125C33.9766 46.1387 36.247 47.0272 37.3822 45.6452C37.8758 45.1022 37.7278 44.7074 36.8887 43.9176C35.7041 42.8318 35.6054 42.7824 34.6182 43.2266ZM36.5925 45.2009C36.247 45.2997 35.6547 45.2997 35.3586 45.2009C35.0131 45.0529 35.2599 44.9541 35.9509 44.9541C36.6419 44.9541 36.8887 45.0529 36.5925 45.2009Z" fill="white"/>
<path d="M6.23984 6.69818C2.63672 10.5481 -0.27539 17.6063 0.0207569 21.7029L0.16883 23.8747L6.09176 24.1708C16.1114 24.7138 26.5752 24.6644 26.5752 24.1215C26.5752 23.4305 8.80644 5.36552 8.11543 5.36552C7.76993 5.36552 6.93085 5.95782 6.23984 6.69818ZM10.534 8.32699C10.7314 8.62314 10.2872 9.51158 9.54681 10.4C7.72057 12.5224 5.49947 17.162 5.10461 19.4818C4.46296 23.6279 4.4136 23.6279 2.88351 23.6279C1.50149 23.6279 1.40277 23.4798 1.40277 21.7523C1.40277 16.0268 5.89433 7.83341 9.00387 7.83341C9.69488 7.83341 10.3859 8.0802 10.534 8.32699ZM25.4894 23.8747C25.3413 24.0721 20.7017 24.0228 15.223 23.8253L5.25268 23.4798L5.49947 21.4068C5.94369 18.1985 7.67121 14.1018 9.64552 11.5352L11.4224 9.21543L18.5793 16.3723C22.5773 20.3703 25.6374 23.7266 25.4894 23.8747Z" fill="white"/>
<path d="M10.0415 13.2616C9.05438 14.3969 8.90631 16.3712 9.79475 17.4571C10.7325 18.5923 13.5459 18.3949 14.4344 17.1116C15.4709 15.6308 15.4215 14.4462 14.237 13.2616C13.003 12.0277 11.1768 11.9783 10.0415 13.2616ZM13.7434 14.002C14.6318 14.5449 14.2863 16.6673 13.2498 17.2103C11.8184 18 10.3377 17.3583 9.99218 15.8776C9.44925 13.8539 11.7197 12.7681 13.7434 14.002Z" fill="white"/>
<path d="M17.4963 18.0489C17.2002 18.7399 17.0521 18.7892 16.7066 18.2463C16.5092 17.8514 15.9662 17.7034 15.522 17.8514C13.5477 18.6412 13.9919 21.7013 16.213 22.6391C18.0886 23.4289 19.3719 22.5898 18.9277 20.8129C18.7303 20.0232 18.8783 19.579 19.4213 19.3815C20.1123 19.0854 20.1123 18.9867 19.3719 18.1476C18.3354 16.963 17.8912 16.963 17.4963 18.0489ZM16.213 18.6905C16.213 19.3815 17.595 19.2828 17.8418 18.5425C17.9405 18.2463 18.2367 18.0982 18.4341 18.2957C18.6809 18.5425 18.4835 19.0854 17.9899 19.6283C17.2495 20.4674 17.2495 20.5661 17.9405 20.8623C19.0758 21.2571 18.3848 22.1456 16.904 22.1456C15.5714 22.1456 14.3868 20.27 14.8804 18.9867C15.2259 18.0982 16.213 17.9008 16.213 18.6905Z" fill="white"/>
<path d="M7.81904 19.9242C6.97995 22.096 8.36197 23.6754 10.0401 22.4415C11.0767 21.7011 10.6818 19.9242 9.25041 19.1839C8.46069 18.7396 8.2139 18.8384 7.81904 19.9242ZM9.69463 21.3556C9.84271 21.9479 9.64527 22.1947 9.20105 22.0466C8.85555 21.8985 8.46069 21.405 8.41133 20.9607C8.26326 20.3685 8.46069 20.1217 8.90491 20.2697C9.25041 20.4178 9.64527 20.9114 9.69463 21.3556Z" fill="white"/>
<path d="M64.572 35.9995V35.7395L65.092 35.5575C65.4387 35.4535 65.664 35.2975 65.768 35.0895C65.8893 34.8815 65.95 34.6042 65.95 34.2575V20.6335C65.95 20.2868 65.8893 20.0095 65.768 19.8015C65.6467 19.5935 65.4127 19.4288 65.066 19.3075L64.572 19.0995V18.8395H70.89C73.4727 18.8395 75.336 19.3162 76.48 20.2695C77.6413 21.2055 78.222 22.4448 78.222 23.9875C78.222 24.9755 77.9793 25.8855 77.494 26.7175C77.026 27.5322 76.246 28.1822 75.154 28.6675C74.062 29.1528 72.5887 29.3955 70.734 29.3955H69.85V34.1795C69.85 34.8555 70.188 35.2975 70.864 35.5055L71.644 35.7395V35.9995H64.572ZM69.85 28.8755H70.838C71.6873 28.8755 72.3807 28.7368 72.918 28.4595C73.4553 28.1822 73.854 27.6968 74.114 27.0035C74.374 26.3102 74.504 25.3482 74.504 24.1175C74.504 22.8695 74.3567 21.8988 74.062 21.2055C73.7847 20.5122 73.3687 20.0355 72.814 19.7755C72.2593 19.4982 71.566 19.3595 70.734 19.3595H69.85V28.8755ZM82.3412 21.7515C81.7518 21.7515 81.2492 21.5695 80.8332 21.2055C80.4345 20.8242 80.2352 20.3475 80.2352 19.7755C80.2352 19.1862 80.4345 18.7095 80.8332 18.3455C81.2492 17.9815 81.7518 17.7995 82.3412 17.7995C82.9305 17.7995 83.4245 17.9815 83.8232 18.3455C84.2218 18.7095 84.4212 19.1862 84.4212 19.7755C84.4212 20.3475 84.2218 20.8242 83.8232 21.2055C83.4245 21.5695 82.9305 21.7515 82.3412 21.7515ZM79.2732 35.9995V35.7395L79.6372 35.6355C79.9838 35.5315 80.2178 35.3755 80.3392 35.1675C80.4778 34.9595 80.5472 34.6822 80.5472 34.3355V26.1975C80.5472 25.8335 80.4778 25.5648 80.3392 25.3915C80.2178 25.2008 79.9838 25.0708 79.6372 25.0015L79.2732 24.9235V24.6635L84.0312 23.1295L84.2912 23.3895L84.2132 27.0815V34.3615C84.2132 34.7082 84.2738 34.9855 84.3952 35.1935C84.5338 35.4015 84.7678 35.5575 85.0972 35.6615L85.3572 35.7395V35.9995H79.2732ZM86.5863 35.9995V35.5835L93.6843 24.0135H89.7583C89.3076 24.0135 88.9523 24.1348 88.6923 24.3775C88.4323 24.6202 88.1896 24.9408 87.9643 25.3395L87.0283 27.0815H86.7683L86.9503 23.4935H97.3503V23.8575L90.4083 35.4795H94.4903C95.0449 35.4795 95.4523 35.3495 95.7123 35.0895C95.9723 34.8295 96.2149 34.4742 96.4403 34.0235L97.3503 32.0995H97.6103L97.3763 35.9995H86.5863ZM98.6722 35.9995V35.5835L105.77 24.0135H101.844C101.394 24.0135 101.038 24.1348 100.778 24.3775C100.518 24.6202 100.276 24.9408 100.05 25.3395L99.1142 27.0815H98.8542L99.0362 23.4935H109.436V23.8575L102.494 35.4795H106.576C107.131 35.4795 107.538 35.3495 107.798 35.0895C108.058 34.8295 108.301 34.4742 108.526 34.0235L109.436 32.0995H109.696L109.462 35.9995H98.6722ZM114.476 36.3895C113.471 36.3895 112.621 36.1035 111.928 35.5315C111.252 34.9595 110.914 34.1362 110.914 33.0615C110.914 32.2468 111.33 31.5015 112.162 30.8255C112.994 30.1322 114.303 29.6122 116.088 29.2655C116.365 29.2135 116.677 29.1615 117.024 29.1095C117.371 29.0402 117.735 28.9708 118.116 28.9015V26.8475C118.116 25.6688 117.969 24.8455 117.674 24.3775C117.397 23.8922 116.955 23.6495 116.348 23.6495C115.932 23.6495 115.603 23.7882 115.36 24.0655C115.117 24.3255 114.961 24.7848 114.892 25.4435L114.84 25.7295C114.805 26.4748 114.623 27.0208 114.294 27.3675C113.965 27.7142 113.557 27.8875 113.072 27.8875C112.621 27.8875 112.249 27.7488 111.954 27.4715C111.659 27.1942 111.512 26.8215 111.512 26.3535C111.512 25.6428 111.755 25.0448 112.24 24.5595C112.743 24.0742 113.401 23.7102 114.216 23.4675C115.031 23.2248 115.915 23.1035 116.868 23.1035C118.411 23.1035 119.598 23.4848 120.43 24.2475C121.279 24.9928 121.704 26.2148 121.704 27.9135V33.6595C121.704 34.4395 122.068 34.8295 122.796 34.8295H123.368L123.602 35.0375C123.273 35.4535 122.909 35.7742 122.51 35.9995C122.129 36.2248 121.583 36.3375 120.872 36.3375C120.109 36.3375 119.503 36.1642 119.052 35.8175C118.619 35.4535 118.333 34.9768 118.194 34.3875C117.674 34.9422 117.137 35.4188 116.582 35.8175C116.045 36.1988 115.343 36.3895 114.476 36.3895ZM116.062 34.8035C116.409 34.8035 116.729 34.7255 117.024 34.5695C117.336 34.3962 117.7 34.1362 118.116 33.7895V29.4215C117.943 29.4562 117.769 29.4908 117.596 29.5255C117.423 29.5602 117.223 29.5948 116.998 29.6295C116.201 29.8375 115.559 30.1928 115.074 30.6955C114.606 31.1808 114.372 31.8395 114.372 32.6715C114.372 33.3822 114.537 33.9195 114.866 34.2835C115.195 34.6302 115.594 34.8035 116.062 34.8035ZM124.215 35.9995V35.7395L124.527 35.6355C125.151 35.4275 125.463 34.9942 125.463 34.3355V20.4255C125.463 20.0788 125.394 19.8188 125.255 19.6455C125.117 19.4548 124.874 19.3162 124.527 19.2295L124.189 19.1515V18.8915L128.947 17.7735L129.259 18.0075L129.155 21.6475V30.5395C129.155 31.1808 129.155 31.8222 129.155 32.4635C129.173 33.0875 129.181 33.7115 129.181 34.3355C129.181 34.6822 129.251 34.9682 129.389 35.1935C129.528 35.4015 129.762 35.5575 130.091 35.6615L130.429 35.7395V35.9995H124.215ZM135.119 36.3895C134.113 36.3895 133.264 36.1035 132.571 35.5315C131.895 34.9595 131.557 34.1362 131.557 33.0615C131.557 32.2468 131.973 31.5015 132.805 30.8255C133.637 30.1322 134.945 29.6122 136.731 29.2655C137.008 29.2135 137.32 29.1615 137.667 29.1095C138.013 29.0402 138.377 28.9708 138.759 28.9015V26.8475C138.759 25.6688 138.611 24.8455 138.317 24.3775C138.039 23.8922 137.597 23.6495 136.991 23.6495C136.575 23.6495 136.245 23.7882 136.003 24.0655C135.76 24.3255 135.604 24.7848 135.535 25.4435L135.483 25.7295C135.448 26.4748 135.266 27.0208 134.937 27.3675C134.607 27.7142 134.2 27.8875 133.715 27.8875C133.264 27.8875 132.891 27.7488 132.597 27.4715C132.302 27.1942 132.155 26.8215 132.155 26.3535C132.155 25.6428 132.397 25.0448 132.883 24.5595C133.385 24.0742 134.044 23.7102 134.859 23.4675C135.673 23.2248 136.557 23.1035 137.511 23.1035C139.053 23.1035 140.241 23.4848 141.073 24.2475C141.922 24.9928 142.347 26.2148 142.347 27.9135V33.6595C142.347 34.4395 142.711 34.8295 143.439 34.8295H144.011L144.245 35.0375C143.915 35.4535 143.551 35.7742 143.153 35.9995C142.771 36.2248 142.225 36.3375 141.515 36.3375C140.752 36.3375 140.145 36.1642 139.695 35.8175C139.261 35.4535 138.975 34.9768 138.837 34.3875C138.317 34.9422 137.779 35.4188 137.225 35.8175C136.687 36.1988 135.985 36.3895 135.119 36.3895ZM136.705 34.8035C137.051 34.8035 137.372 34.7255 137.667 34.5695C137.979 34.3962 138.343 34.1362 138.759 33.7895V29.4215C138.585 29.4562 138.412 29.4908 138.239 29.5255C138.065 29.5602 137.866 29.5948 137.641 29.6295C136.843 29.8375 136.202 30.1928 135.717 30.6955C135.249 31.1808 135.015 31.8395 135.015 32.6715C135.015 33.3822 135.179 33.9195 135.509 34.2835C135.838 34.6302 136.237 34.8035 136.705 34.8035ZM144.729 35.9995V35.7395L145.093 35.6355C145.7 35.4622 146.003 35.0375 146.003 34.3615V26.2235C146.003 25.8422 145.942 25.5648 145.821 25.3915C145.7 25.2008 145.466 25.0708 145.119 25.0015L144.729 24.8975V24.6375L149.175 23.1295L149.435 23.3895L149.643 24.9495C150.25 24.4122 150.934 23.9702 151.697 23.6235C152.46 23.2768 153.214 23.1035 153.959 23.1035C155.103 23.1035 155.978 23.4155 156.585 24.0395C157.209 24.6635 157.521 25.6168 157.521 26.8995V34.3875C157.521 35.0635 157.85 35.4882 158.509 35.6615L158.743 35.7395V35.9995H152.607V35.7395L152.945 35.6355C153.552 35.4448 153.855 35.0202 153.855 34.3615V26.0675C153.855 24.9582 153.3 24.4035 152.191 24.4035C151.428 24.4035 150.596 24.7848 149.695 25.5475V34.3875C149.695 35.0635 149.998 35.4882 150.605 35.6615L150.839 35.7395V35.9995H144.729ZM165.272 36.3895C164.25 36.3895 163.331 36.1642 162.516 35.7135C161.702 35.2455 161.052 34.5348 160.566 33.5815C160.098 32.6108 159.864 31.3715 159.864 29.8635C159.864 28.3382 160.133 27.0815 160.67 26.0935C161.208 25.0882 161.918 24.3428 162.802 23.8575C163.686 23.3548 164.648 23.1035 165.688 23.1035C166.295 23.1035 166.876 23.1642 167.43 23.2855C167.985 23.4068 168.479 23.5888 168.912 23.8315V20.4515C168.912 20.0875 168.852 19.8188 168.73 19.6455C168.626 19.4722 168.392 19.3508 168.028 19.2815L167.534 19.1775V18.9175L172.266 17.7735L172.552 18.0075L172.448 21.6475V34.3615C172.448 34.7082 172.509 34.9942 172.63 35.2195C172.752 35.4275 172.977 35.5748 173.306 35.6615L173.54 35.7395V35.9995L169.094 36.2855L168.86 35.3495C168.392 35.6615 167.855 35.9128 167.248 36.1035C166.659 36.2942 166 36.3895 165.272 36.3895ZM166.78 35.4275C167.508 35.4275 168.176 35.2108 168.782 34.7775V24.4555C168.141 24.0395 167.482 23.8315 166.806 23.8315C165.974 23.8315 165.264 24.3168 164.674 25.2875C164.085 26.2408 163.79 27.7488 163.79 29.8115C163.79 31.8742 164.068 33.3302 164.622 34.1795C165.177 35.0115 165.896 35.4275 166.78 35.4275Z" fill="white"/>
</svg>
