<svg width="20" height="21" viewBox="0 0 20 21" fill="none" xmlns="http://www.w3.org/2000/svg">
<path d="M2.00425 10.0126C2.73423 11.6293 3.97739 13.3809 5.41489 14.8184C6.9481 16.3516 8.63963 17.5657 10.178 18.2368C11.0155 18.6023 11.7647 18.785 12.3952 18.785C13.0226 18.785 13.5322 18.6041 13.894 18.2422L15.3449 16.7915C15.7857 16.3503 15.7462 15.5933 15.2567 15.1035L13.1186 12.9653C12.6289 12.476 11.8714 12.4365 11.4306 12.8773L10.7649 13.5431C10.5805 13.681 9.44028 13.3298 8.15733 12.047C6.874 10.7638 6.52207 9.6228 6.66062 9.44006L7.32713 8.77368C7.76804 8.33252 7.72849 7.5752 7.23887 7.08569L5.10081 4.94751C4.61094 4.45801 3.85374 4.41846 3.41282 4.8595L1.96214 6.31006C1.23801 7.03406 1.25291 8.349 2.00425 10.0126ZM2.66917 7.01721L4.11985 5.56653C4.12986 5.55652 4.14976 5.55066 4.17564 5.55066C4.23228 5.55066 4.31797 5.57898 4.39378 5.65466L6.53184 7.79272C6.64231 7.9032 6.65171 8.03479 6.61997 8.06653L5.95347 8.73291C5.12486 9.56177 6.0792 11.3832 7.45029 12.754C8.13303 13.4368 8.88377 13.9821 9.56431 14.2894C10.6844 14.7953 11.2398 14.4824 11.4713 14.2507L12.1377 13.5844C12.1698 13.5525 12.301 13.5621 12.4116 13.6725L14.5495 15.8105C14.66 15.921 14.6695 16.0526 14.6378 16.0845L13.187 17.5352C12.7844 17.9379 11.8092 17.8577 10.5779 17.3203C9.15135 16.6979 7.56895 15.5582 6.12193 14.1113C4.76658 12.7559 3.59788 11.1119 2.91563 9.60095C2.36424 8.38013 2.27207 7.41431 2.66917 7.01721ZM18.5742 11.121C18.5742 5.69824 14.1626 1.28662 8.73997 1.28662V2.28662C13.6112 2.28662 17.5742 6.24976 17.5742 11.121H18.5742Z" fill="white"/>
<path d="M8.92578 4.021V5.021C12.3933 5.021 15.2144 7.84204 15.2144 11.3096H16.2144C16.2144 7.29065 12.9447 4.021 8.92578 4.021Z" fill="white"/>
<path d="M12.6687 11.303H13.6687C13.6687 8.68774 11.541 6.56006 8.92578 6.56006V7.56006C10.9896 7.56006 12.6687 9.23914 12.6687 11.303Z" fill="white"/>
</svg>
