<svg width="20" height="21" viewBox="0 0 20 21" fill="none" xmlns="http://www.w3.org/2000/svg">
<g clip-path="url(#clip0_0_194)">
<path d="M9.46797 3.81158L9.17852 4.31939C8.75173 4.07685 8.28135 3.92076 7.79424 3.86004C7.30712 3.79931 6.81282 3.83514 6.33955 3.96547C5.86628 4.0958 5.42333 4.31809 5.03598 4.61963C4.64863 4.92118 4.32448 5.29607 4.08203 5.72291L3.57422 5.43385C4.14091 4.43743 5.08007 3.70681 6.18526 3.40261C7.29045 3.0984 8.4712 3.24551 9.46797 3.81158Z" fill="#F2F2F2"/>
<path d="M12.5907 2.32078C9.93059 -0.530783 5.44582 -0.687033 2.59387 1.97273C1.24325 3.23566 0.440865 4.97727 0.358577 6.82454C0.276289 8.67182 0.920637 10.4779 2.15362 11.8559C3.3866 13.2339 5.11018 14.0743 6.9552 14.1971C8.80022 14.32 10.62 13.7154 12.0247 12.513C12.0987 12.4497 12.1715 12.3846 12.2431 12.3177C12.315 12.2509 12.3849 12.1825 12.4532 12.1134C13.7351 10.8141 14.4652 9.06969 14.4908 7.24471C14.5164 5.41973 13.8356 3.65548 12.5907 2.32078V2.32078ZM13.1661 7.34812C13.1144 8.83694 12.4869 10.2476 11.4159 11.283C10.3448 12.3184 8.91367 12.8977 7.42395 12.8989C7.35598 12.8989 7.28762 12.8977 7.21887 12.8954C6.46382 12.8711 5.72107 12.6974 5.0336 12.3842C4.34614 12.071 3.7276 11.6246 3.21379 11.0708C1.0509 8.75047 1.17786 5.10594 3.49661 2.94305C4.32828 2.16717 5.37136 1.65536 6.49393 1.47234C7.6165 1.28932 8.76813 1.44332 9.80318 1.91484C10.8382 2.38637 11.7102 3.15426 12.3088 4.12138C12.9074 5.0885 13.2058 6.21142 13.1661 7.34812V7.34812Z" fill="#F2F2F2"/>
<path d="M9.46797 3.81158L9.17852 4.31939C8.75173 4.07685 8.28135 3.92076 7.79424 3.86004C7.30712 3.79931 6.81282 3.83514 6.33955 3.96547C5.86628 4.0958 5.42333 4.31809 5.03598 4.61963C4.64863 4.92118 4.32448 5.29607 4.08203 5.72291L3.57422 5.43385C4.14091 4.43743 5.08007 3.70681 6.18526 3.40261C7.29045 3.0984 8.4712 3.24551 9.46797 3.81158Z" fill="#F2F2F2"/>
<path d="M19.3293 17.821L14.5195 12.8491L12.6055 14.6354L17.416 19.6101C17.533 19.7356 17.6736 19.8367 17.8298 19.9076C17.986 19.9785 18.1547 20.0179 18.3262 20.0233H18.3727C18.6276 20.023 18.877 19.9483 19.0901 19.8083C19.3033 19.6684 19.4709 19.4692 19.5725 19.2353C19.6741 19.0014 19.7052 18.743 19.662 18.4917C19.6188 18.2404 19.5031 18.0071 19.3293 17.8206V17.821Z" fill="#F2F2F2"/>
<path d="M12.2605 11.9026L11.832 12.3022L13.5557 14.15L13.9842 13.7504L12.2605 11.9026Z" fill="#F2F2F2"/>
<path d="M9.46797 3.81158L9.17852 4.31939C8.75173 4.07685 8.28135 3.92076 7.79424 3.86004C7.30712 3.79931 6.81282 3.83514 6.33955 3.96547C5.86628 4.0958 5.42333 4.31809 5.03598 4.61963C4.64863 4.92118 4.32448 5.29607 4.08203 5.72291L3.57422 5.43385C4.14091 4.43743 5.08007 3.70681 6.18526 3.40261C7.29045 3.0984 8.4712 3.24551 9.46797 3.81158Z" fill="#F2F2F2"/>
</g>
<defs>
<clipPath id="clip0_0_194">
<rect width="20" height="20" fill="white" transform="translate(0 0.0366211)"/>
</clipPath>
</defs>
</svg>
